<svg xmlns="http://www.w3.org/2000/svg" style="display: none;"><symbol id="csi-handshake" viewBox="0 0 26 26"><g class="nc-icon-wrapper" stroke="none"><g id="Icons-custom-/-handshake" stroke="none" stroke-width="1" fill="none" fill-rule="evenodd"><g id="handshake" transform="translate(0 2)"><path d="M17.806 2.979a.541.541 0 0 0-.223-.14L12.548 1.2a3.493 3.493 0 0 0-3.677.856 2.167 2.167 0 0 0-.444.635L6.184 8.163c-.128.313-.085.73.117 1.146a2.176 2.176 0 0 0 1.429 1.177c.695.173 1.416-.062 1.98-.647a2.12 2.12 0 0 0 .347-.465l.754-1.45c.124-.24.304-.49.494-.687.647-.671.954-.364 1.085-.234 1.128 1.13 7.043 7.292 7.043 7.292.21.219.167.632-.096.905-.263.272-.662.318-.872.101l-1.662-1.723a.532.532 0 0 0-.774 0 .581.581 0 0 0 0 .802l1.662 1.725c.21.217.166.63-.097.902-.262.273-.662.319-.871.102l-1.662-1.724a.533.533 0 0 0-.775 0 .582.582 0 0 0 0 .804l1.662 1.723c.21.218.164.632-.097.904-.262.272-.661.319-.872.1l-1.662-1.723a.534.534 0 0 0-.774 0 .584.584 0 0 0 0 .803l1.662 1.724c.21.218.166.632-.096.905-.264.272-.663.318-.872.1l-2.023-2.1c.289-.45.21-1.104-.219-1.55-.48-.498-1.219-.544-1.646-.1.427-.444.385-1.209-.096-1.708-.481-.498-1.219-.544-1.646-.1.427-.444.384-1.209-.098-1.707-.48-.5-1.217-.545-1.646-.101.429-.444.385-1.208-.096-1.708-.45-.467-1.12-.53-1.557-.175L.935 8.078a.533.533 0 0 0-.775 0 .585.585 0 0 0 0 .804l3.267 3.389-.969 1.005c-.427.443-.384 1.207.098 1.707.48.498 1.217.544 1.645.1-.428.444-.384 1.209.098 1.708.48.498 1.218.545 1.646.1-.428.445-.385 1.209.096 1.708.481.499 1.219.544 1.646.1-.427.444-.384 1.208.097 1.708.48.498 1.218.544 1.646.1l1.023-1.06 2.01 2.083c.64.665 1.725.618 2.42-.101.338-.351.519-.8.544-1.243a1.82 1.82 0 0 0 1.198-.565c.339-.351.52-.8.546-1.243a1.825 1.825 0 0 0 1.198-.565c.338-.352.52-.8.544-1.243.428-.026.86-.213 1.199-.566.693-.72.736-1.846.097-2.51l-.848-.88 3.479-3.607a.583.583 0 0 0 0-.804L17.806 2.98z" id="Path"/><path d="M25.726 3.49L21.929.236a1.052 1.052 0 0 0-1.327 0l-1.327 1.136a.726.726 0 0 0 0 1.138l3.797 3.255c.366.313.96.313 1.327 0l1.327-1.138a.727.727 0 0 0 0-1.137zm-1.993 1.657c-.425 0-.77-.295-.77-.66 0-.364.345-.66.77-.66.425 0 .77.295.77.66 0 .365-.345.66-.77.66z" id="Shape"/></g></g></g></symbol><symbol id="csi-NBA-1" viewBox="0 0 26 26"><g class="nc-icon-wrapper" stroke="none"><g id="Icons-custom-/NBA-1" stroke="none" stroke-width="1" fill="none" fill-rule="evenodd"><path d="M14.627 10.78a.812.812 0 0 1-1.111 0 .726.726 0 0 1 0-1.06l1.571-1.5a.812.812 0 0 1 1.111 0l1.572 1.5a.726.726 0 0 1 0 1.06.812.812 0 0 1-1.111 0l-.23-.22v4.19a.758.758 0 0 1-.596.728l-5.69 1.358v1.793c.914.31 1.571 1.143 1.571 2.121 0 1.24-1.057 2.25-2.357 2.25C8.057 23 7 21.99 7 20.75c0-.978.657-1.811 1.571-2.121V16.25c0-.344.246-.644.596-.728l5.69-1.358v-3.603l-.23.22zM9.357 21.5c.433 0 .786-.337.786-.75S9.79 20 9.357 20c-.433 0-.786.337-.786.75s.353.75.786.75zm-3.162-8.695a.666.666 0 0 1 0-.943L7.057 11l-.862-.862a.666.666 0 1 1 .943-.943l.862.862.862-.862a.666.666 0 1 1 .943.943L8.943 11l.862.862a.666.666 0 1 1-.943.943L8 11.943l-.862.862a.666.666 0 0 1-.943 0zm10.943 4.39l.862.862.862-.862a.666.666 0 1 1 .943.943l-.862.862.862.862a.666.666 0 1 1-.943.943L18 19.943l-.862.862a.666.666 0 1 1-.943-.943l.862-.862-.862-.862a.666.666 0 1 1 .943-.943zM5.308 26C4.035 26 3 24.975 3 23.715V3.809c0-1.26 1.035-2.286 2.308-2.286h5.516A2.31 2.31 0 0 1 13 0a2.31 2.31 0 0 1 2.176 1.523h5.516C21.965 1.523 23 2.55 23 3.81v19.906C23 24.975 21.965 26 20.692 26H5.308zm6.154-22.953h-.77V4.57h4.616V3.047h-.77a.765.765 0 0 1-.769-.762.766.766 0 0 0-.769-.762.766.766 0 0 0-.77.762c0 .42-.344.762-.768.762zm-6.924.762v19.906c0 .42.346.762.77.762h15.384c.424 0 .77-.342.77-.762V3.809a.766.766 0 0 0-.77-.762h-3.846v2.285c0 .42-.344.762-.77.762H9.924a.765.765 0 0 1-.77-.762V3.047H5.309a.766.766 0 0 0-.77.762z" id="Combined-Shape"/></g></g></symbol><symbol id="csi-NBA-5" viewBox="0 0 26 26"><g class="nc-icon-wrapper" stroke="none"><g id="Icons-custom-/NBA-5" stroke="none" stroke-width="1" fill="none" fill-rule="evenodd"><path d="M25 13.5L18.276 18v-2.598H11v-3.804h7.276V9L25 13.5zM5 9c2.206 0 4 1.794 4 4s-1.794 4-4 4-4-1.794-4-4 1.794-4 4-4z" id="Combined-Shape"/></g></g></symbol><symbol id="csi-column" viewBox="0 0 26 26"><g class="nc-icon-wrapper" stroke="none"><g id="Icons-custom-/column" stroke="none" stroke-width="1" fill="none" fill-rule="evenodd"><g id="column" transform="translate(4)"><path d="M1.393 12.536v-.005a.464.464 0 0 0 0 .928h5.595c.005.062.005.125.011.186.007.073.022.143.032.216.017.141.036.281.063.418.015.084.041.165.062.248.028.121.056.243.092.362.026.086.06.17.09.255.038.11.074.222.12.33.036.087.077.169.116.253.048.103.095.206.148.306.043.083.093.163.14.244.056.096.111.191.172.284.052.08.109.155.164.232.064.089.128.177.196.262.06.075.123.146.186.218.071.081.143.162.219.24.066.07.136.135.205.2a6.387 6.387 0 0 0 .463.4 6.408 6.408 0 0 0 2.51 1.209c.094.022.189.044.285.062.113.021.227.037.342.052.097.013.194.027.292.035.035.003.069.01.104.013V26H0V0h12.998v6.513c-.035.003-.069.01-.104.013-.098.008-.195.022-.292.035a6.63 6.63 0 0 0-.342.052 6.936 6.936 0 0 0-.613.147c-.093.027-.183.058-.276.089a6.618 6.618 0 0 0-.579.229c-.1.045-.199.092-.296.142l-.253.14a8.73 8.73 0 0 0-.518.33 6.004 6.004 0 0 0-.26.194 6.77 6.77 0 0 0-.463.399c-.069.066-.139.132-.205.2a6.872 6.872 0 0 0-.219.241c-.063.072-.126.143-.185.218a6.43 6.43 0 0 0-.197.262c-.055.078-.111.153-.164.232-.06.093-.116.189-.172.285-.047.08-.096.16-.14.243-.055.1-.101.203-.147.307-.04.083-.08.166-.116.252-.045.108-.083.22-.122.33-.03.086-.062.169-.088.255-.036.119-.064.24-.093.362-.02.083-.045.165-.062.249-.027.137-.045.276-.063.415-.01.073-.024.143-.032.216-.006.062-.006.124-.01.186H1.393zm0 7.428a.464.464 0 0 0 0 .929h10.214a.464.464 0 0 0 0-.929H1.393zm0-14.857a.464.464 0 0 0 0 .929h10.214a.464.464 0 0 0 0-.929H1.393zM19 13a5.5 5.5 0 1 1-11 0 5.5 5.5 0 0 1 11 0zm-5.958 4.125a.458.458 0 0 0 .916 0v-3.667h3.667a.458.458 0 0 0 0-.916h-3.667V8.875a.458.458 0 0 0-.916 0v3.667H9.375a.458.458 0 0 0 0 .916h3.667v3.667z" id="Combined-Shape"/></g></g></g></symbol><symbol id="csi-NBA-4" viewBox="0 0 26 26"><g class="nc-icon-wrapper" stroke="none"><g id="Icons-custom-/NBA-4" stroke="none" stroke-width="1" fill="none" fill-rule="evenodd"><path d="M22.2 4H3.8C2.808 4 2 4.827 2 5.843v11.993c0 1.016.808 1.843 1.8 1.843h6.384l2.26 3.039A.694.694 0 0 0 13 23a.694.694 0 0 0 .556-.282l2.26-3.039H22.2c.992 0 1.8-.827 1.8-1.843V5.843C24 4.827 23.192 4 22.2 4zM12.112 14.596a.688.688 0 0 1-.494-.21l-2.294-2.349a.728.728 0 0 1 0-1.012.688.688 0 0 1 .99 0l1.798 1.842 3.575-3.66a.687.687 0 0 1 .989 0 .728.728 0 0 1 0 1.013l-4.07 4.166a.689.689 0 0 1-.494.21z" id="Shape"/></g></g></symbol><symbol id="csi-NBA-3" viewBox="0 0 26 26"><g class="nc-icon-wrapper" stroke="none"><g id="Icons-custom-/NBA-3" stroke="none" stroke-width="1" fill="none" fill-rule="evenodd"><path d="M20.125 3.875A2.894 2.894 0 0 0 18 3c-.833 0-1.541.292-2.125.875A2.893 2.893 0 0 0 15 6c0 .542.135 1.044.406 1.508.271.463.635.825 1.094 1.086 0 .541-.044 1.018-.132 1.43a3.222 3.222 0 0 1-.438 1.085 4.914 4.914 0 0 1-.633.797c-.219.22-.526.425-.922.618-.396.192-.763.354-1.102.484-.338.13-.794.284-1.367.46-1.042.324-1.844.62-2.406.891V6.594c.458-.26.823-.623 1.094-1.086.27-.464.406-.966.406-1.508 0-.833-.292-1.542-.875-2.125A2.893 2.893 0 0 0 8 1c-.833 0-1.542.292-2.125.875A2.893 2.893 0 0 0 5 4c0 .542.135 1.044.406 1.508.27.463.635.825 1.094 1.086v12.812c-.459.26-.823.623-1.094 1.086C5.136 20.956 5 21.46 5 22c0 .833.292 1.542.875 2.125A2.894 2.894 0 0 0 8 25c.833 0 1.542-.292 2.125-.875A2.893 2.893 0 0 0 11 22c0-.541-.136-1.044-.406-1.508A2.917 2.917 0 0 0 9.5 19.406V19c0-.718.216-1.24.648-1.562.433-.323 1.315-.693 2.649-1.11 1.406-.448 2.464-.87 3.172-1.266 2.333-1.322 3.51-3.479 3.531-6.468.459-.26.823-.623 1.094-1.086.27-.464.406-.966.406-1.508 0-.833-.292-1.541-.875-2.125zM9.063 23.063A1.447 1.447 0 0 1 8 23.501c-.417 0-.77-.146-1.062-.438a1.447 1.447 0 0 1-.438-1.062c0-.417.146-.771.438-1.063A1.447 1.447 0 0 1 8 20.501c.417 0 .771.146 1.063.437.291.292.437.646.437 1.063 0 .416-.146.77-.437 1.062zm0-18A1.447 1.447 0 0 1 8 5.5c-.417 0-.77-.146-1.062-.437A1.447 1.447 0 0 1 6.5 4c0-.417.146-.77.438-1.062A1.447 1.447 0 0 1 8 2.5c.417 0 .771.146 1.063.438.291.291.437.645.437 1.062 0 .417-.146.771-.437 1.063zm10 2A1.446 1.446 0 0 1 18 7.5c-.417 0-.77-.146-1.062-.437A1.446 1.446 0 0 1 16.5 6c0-.416.146-.77.438-1.062A1.446 1.446 0 0 1 18 4.5c.417 0 .771.146 1.063.438.291.291.437.646.437 1.062 0 .417-.146.771-.437 1.063z" id="Shape"/></g></g></symbol><symbol id="csi-NBA-2" viewBox="0 0 26 26"><g class="nc-icon-wrapper" stroke="none"><g id="Icons-custom-/NBA-2" stroke="none" stroke-width="1" fill="none" fill-rule="evenodd"><path d="M20.031 3.86h-3.515V1H9.484v3.271L7.17 1.956l-.994.994.909.91h-5.38v1.406h5.38l-.91.909.995.994 2.315-2.315v3.224h7.032V5.266h3.515c1.939 0 3.563 1.577 3.563 3.515 0 1.939-1.624 3.516-3.563 3.516h-1.115l.91-.91-.995-.994-2.315 2.316V9.484H9.484v2.813H5.97C3.255 12.297 1 14.505 1 17.219c0 2.713 2.255 4.922 4.969 4.922h1.115l-.91.909.995.994 2.315-2.315V25h7.032v-7.078H9.484v3.224L7.17 18.831l-.994.994.909.91H5.969c-1.939 0-3.563-1.578-3.563-3.516 0-1.939 1.624-3.516 3.563-3.516h3.515v2.813h7.032V13.29l2.315 2.316.994-.995-.909-.909h1.115c2.714 0 4.969-2.208 4.969-4.922 0-2.713-2.255-4.922-4.969-4.922z" id="Path"/></g></g></symbol><symbol id="csi-circle" viewBox="0 0 26 26"><g class="nc-icon-wrapper" stroke="none"><defs><path d="M13 1C6.35 1 1 6.35 1 13s5.35 12 12 12 12-5.35 12-12S19.65 1 13 1zm0 23C6.889 24 2 19.111 2 13S6.889 2 13 2s11 4.889 11 11-4.889 11-11 11z" id="path-1"/></defs><g id="Icons-custom-/circle" stroke="none" stroke-width="1" fill="none" fill-rule="evenodd"><mask id="mask-2"><use xlink:href="#path-1"/></mask><use id="Mask" xlink:href="#path-1"/></g></g></symbol><symbol id="csi-gift" viewBox="0 0 26 26"><g class="nc-icon-wrapper" stroke="none"><g id="Icons-custom-/gift" stroke="none" stroke-width="1" fill="none" fill-rule="evenodd"><path d="M10.101 17.274c0 .27.133.52.356.672.27.184.498.278.586.297.395.057 4.913.54 7.876.853l-.214 2.02c-2.308-.245-7.71-.818-8.023-.875-.552-.101-1.094-.43-1.369-.617a2.843 2.843 0 0 1-.671-.642l-.01.01-4.874-4.781a1.01 1.01 0 0 0-.71-.291h-.01a1.012 1.012 0 0 0-1.007 1.025c.003.27.11.525.304.715l7.538 7.393c.603.591 1.4.917 2.243.917H26V26H12.116a5.205 5.205 0 0 1-3.666-1.498L.913 17.11A3.024 3.024 0 0 1 0 14.964a3.025 3.025 0 0 1 .872-2.162 3.027 3.027 0 0 1 2.146-.912 3.033 3.033 0 0 1 2.163.871l3.228 3.167a2.846 2.846 0 0 1 2.505-1.496l7.025-.003.151.001-.012 1.014.012-1.014c2.476.03 4.848.807 6.861 2.247l1.049.75v2.497l-2.231-1.596a9.962 9.962 0 0 0-5.828-1.869l-7.027.003a.813.813 0 0 0-.813.812zm-.549-10.2L7.235 4.912a.725.725 0 0 1-.197-.765.771.771 0 0 1 .63-.508l3.2-.445L12.302.416A.784.784 0 0 1 13 0c.297 0 .568.161.7.416l1.43 2.778 3.202.445c.294.04.538.238.63.508a.725.725 0 0 1-.197.765l-2.317 2.162.54 3.012c.012.054.019.11.019.167 0 .412-.348.746-.779.747a.811.811 0 0 1-.365-.086L13 9.473l-2.864 1.441a.805.805 0 0 1-.82-.057.732.732 0 0 1-.31-.73l.546-3.053z" id="Combined-Shape"/></g></g></symbol><symbol id="csi-expand_node" viewBox="0 0 26 26"><g class="nc-icon-wrapper" stroke="none"><defs><path d="M21.488 4.487c-4.7-4.65-12.3-4.65-17 0-4.65 4.7-4.65 12.3 0 17 4.7 4.7 12.3 4.7 16.95 0 4.7-4.7 4.7-12.3.05-17zM8.343 11h9.328c.264 0 .448.348.237.59l-4.558 5.678a.418.418 0 0 1-.66 0l-4.61-5.679c-.185-.24-.027-.589.263-.589z" id="path-1"/></defs><g id="Icons-custom-/expand_node" stroke="none" stroke-width="1" fill="none" fill-rule="evenodd"><mask id="mask-2"><use xlink:href="#path-1"/></mask><use id="Mask" xlink:href="#path-1"/></g></g></symbol><symbol id="csi-discount" viewBox="0 0 26 26"><g class="nc-icon-wrapper" stroke="none"><g id="Icons-custom-/discount" stroke="none" stroke-width="1" fill="none" fill-rule="evenodd"><g id="discount-sticker-with-percentage" transform="translate(0 1)"><path d="M16.25 14c-.372 0-.65.256-.783.408-.297.34-.467.83-.467 1.342 0 .512.17 1.001.467 1.342.133.152.411.408.783.408.372 0 .65-.256.783-.408.297-.34.467-.83.467-1.342 0-.512-.17-1.001-.467-1.342-.133-.152-.411-.408-.783-.408z" id="Path"/><path d="M9.825 11.15c.394 0 .689-.267.83-.425.314-.356.495-.866.495-1.4 0-.534-.18-1.044-.495-1.4-.141-.158-.436-.425-.83-.425-.394 0-.689.267-.83.425-.314.356-.495.866-.495 1.4 0 .534.18 1.044.495 1.4.14.159.436.425.83.425z" id="Path"/><path d="M25.664 11.82L22.48 9.396l1.161-3.846a.858.858 0 0 0-.125-.75.845.845 0 0 0-.67-.352l-3.99-.073-1.3-3.8a.842.842 0 0 0-1.286-.42L13 2.457 9.73.154a.842.842 0 0 0-1.287.421l-1.3 3.8-3.99.074a.845.845 0 0 0-.67.352.859.859 0 0 0-.125.75l1.161 3.845L.336 11.82a.855.855 0 0 0 0 1.362l3.183 2.423-1.161 3.845a.859.859 0 0 0 .125.75.845.845 0 0 0 .67.352l3.99.073 1.3 3.8a.842.842 0 0 0 1.286.42L13 22.543l3.27 2.305a.843.843 0 0 0 1.287-.421l1.3-3.8 3.99-.074a.845.845 0 0 0 .67-.352.858.858 0 0 0 .125-.75l-1.161-3.845 3.183-2.423a.855.855 0 0 0 0-1.362zM9.81 6.59c1.201 0 2.175 1.207 2.175 2.695 0 1.489-.974 2.695-2.175 2.695-1.202 0-2.176-1.206-2.176-2.695 0-1.488.974-2.695 2.176-2.695zm-.139 11.83a.726.726 0 0 1-1.012.166.735.735 0 0 1-.166-1.02L16.33 6.58a.726.726 0 0 1 1.012-.167c.325.235.4.692.166 1.02L9.67 18.42zm6.52-.012c-1.202 0-2.176-1.207-2.176-2.695 0-1.488.974-2.695 2.175-2.695 1.202 0 2.176 1.207 2.176 2.695 0 1.488-.974 2.695-2.176 2.695z" id="Shape"/></g></g></g></symbol><symbol id="csi-breadcrumbs-2" viewBox="0 0 26 26"><g class="nc-icon-wrapper" stroke="none"><defs><path d="M4.5 21.05c-.3 0-.5-.2-.5-.5V5.5c0-.3.2-.5.5-.5h4.05c.2 0 .45.1.6.25l5.8 7.3c.2.25.2.65 0 .95L9.1 20.8c-.15.2-.4.3-.65.3l-3.95-.05zm17.95-8.5L16.6 5.3c-.25-.3-.7-.4-1.05-.1l-1.15.95c-.35.25-.4.75-.1 1.05l4.75 5.85-4.75 5.9c-.25.3-.2.8.1 1.05l1.15.95c.35.25.75.2 1.05-.1l5.85-7.3c.2-.4.2-.75 0-1z" id="path-1"/></defs><g id="Icons-custom-/breadcrumbs-2" stroke="none" stroke-width="1" fill="none" fill-rule="evenodd"><mask id="mask-2"><use xlink:href="#path-1"/></mask><use id="Mask" transform="matrix(-1 0 0 1 26.6 0)" xlink:href="#path-1"/></g></g></symbol><symbol id="csi-collapse_node" viewBox="0 0 26 26"><g class="nc-icon-wrapper" stroke="none"><defs><path d="M21.488 4.487c-4.7-4.65-12.3-4.65-17 0-4.65 4.7-4.65 12.3 0 17 4.7 4.7 12.3 4.7 16.95 0 4.7-4.7 4.7-12.3.05-17zm-10.702 4.07v9.329c0 .263.348.448.589.237l5.679-4.56a.418.418 0 0 0 0-.658l-5.679-4.611c-.241-.185-.59-.027-.59.263z" id="path-1"/></defs><g id="Icons-custom-/collapse_node" stroke="none" stroke-width="1" fill="none" fill-rule="evenodd"><mask id="mask-2"><use xlink:href="#path-1"/></mask><use id="Mask" xlink:href="#path-1"/></g></g></symbol><symbol id="csi-big-shot" viewBox="0 0 26 26"><g class="nc-icon-wrapper" stroke="none"><g id="Icons-custom-/big-shot" stroke="none" stroke-width="1" fill="none" fill-rule="evenodd"><path d="M13 18c2.205 0 4 1.853 4 4.13 0 .661-.161 1.295-.441 1.865L13 21.877 9.433 24A4.238 4.238 0 0 1 9 22.13C9 19.853 10.794 18 13 18zm0-6c.827 0 1.5.673 1.5 1.5S13.827 15 13 15s-1.5-.673-1.5-1.5.673-1.5 1.5-1.5zm12.963-1.896a.76.76 0 0 1-.194.78l-5.832 5.663 1.481 8.568a.76.76 0 0 1-.319.75.766.766 0 0 1-.817.033l-2.55-1.596c.4-.754.621-1.602.621-2.483 0-2.94-2.402-5.332-5.353-5.332a3.056 3.056 0 0 0 3.059-3.047A3.056 3.056 0 0 0 13 10.393a3.056 3.056 0 0 0-3.059 3.047 3.056 3.056 0 0 0 3.06 3.047c-2.952 0-5.354 2.392-5.354 5.332 0 .887.225 1.733.621 2.483l-2.601 1.595a.764.764 0 0 1-1.136-.783l1.532-8.567-5.832-5.663a.76.76 0 0 1 .424-1.299l8.038-1.163 3.61-8.011c.246-.548 1.148-.548 1.394 0l3.61 8.011 8.038 1.163a.764.764 0 0 1 .618.519z" id="Combined-Shape"/></g></g></symbol><symbol id="csi-row" viewBox="0 0 26 26"><g class="nc-icon-wrapper" stroke="none"><g id="Icons-custom-/row" stroke="none" stroke-width="1" fill="none" fill-rule="evenodd"><g id="row" transform="translate(0 4)"><path d="M13 8a5.5 5.5 0 1 1 0 11 5.5 5.5 0 0 1 0-11zm4.125 5.958a.458.458 0 0 0 0-.916h-3.667V9.375a.458.458 0 0 0-.916 0v3.667H8.875a.458.458 0 0 0 0 .916h3.667v3.667a.458.458 0 0 0 .916 0v-3.667h3.667zm1.652-3.46c-.044-.086-.09-.17-.132-.255a6.273 6.273 0 0 0-.924-1.24c-.065-.07-.13-.14-.2-.206a6.864 6.864 0 0 0-.24-.219c-.072-.063-.143-.126-.218-.185a6.583 6.583 0 0 0-.262-.197c-.077-.055-.153-.111-.232-.164-.093-.06-.189-.116-.285-.172-.08-.047-.16-.096-.243-.14-.1-.055-.203-.101-.306-.147-.084-.04-.166-.08-.252-.116-.11-.045-.22-.083-.332-.122-.084-.03-.168-.062-.254-.088-.119-.036-.24-.064-.362-.093-.083-.02-.164-.045-.248-.062-.14-.027-.28-.045-.418-.063-.073-.01-.143-.024-.216-.032-.062-.006-.124-.006-.186-.01V1.393a.464.464 0 0 0-.929 0v5.595c-.062.005-.124.005-.185.011-.073.007-.144.022-.216.032-.14.017-.28.036-.416.063-.084.015-.165.041-.248.062-.121.028-.243.056-.362.092-.086.026-.17.06-.255.09-.11.038-.222.074-.33.12-.087.036-.169.077-.253.116-.103.048-.206.095-.306.148-.083.043-.163.093-.244.14-.096.056-.191.111-.284.172-.08.052-.155.109-.232.164a6.366 6.366 0 0 0-.262.196c-.075.06-.146.123-.218.186a6.66 6.66 0 0 0-.24.219c-.07.066-.135.136-.2.205a6.387 6.387 0 0 0-.4.463 6.408 6.408 0 0 0-1.209 2.51 6.64 6.64 0 0 0-.062.285 6.348 6.348 0 0 0-.052.342c-.013.097-.027.194-.035.292-.003.035-.01.069-.013.104H0V0h26v13h-6.516c-.003-.035-.01-.07-.013-.104-.008-.098-.022-.195-.035-.292a6.348 6.348 0 0 0-.052-.342 6.936 6.936 0 0 0-.147-.613c-.027-.093-.057-.183-.088-.276a6.619 6.619 0 0 0-.23-.579c-.045-.1-.092-.2-.142-.297zm1.187-9.105v10.214a.464.464 0 0 0 .929 0V1.393a.464.464 0 0 0-.929 0zM6.036 11.607V1.393a.464.464 0 0 0-.929 0v10.214a.464.464 0 0 0 .929 0z" id="Combined-Shape"/></g></g></g></symbol><symbol id="csi-tag" viewBox="0 0 26 26"><g class="nc-icon-wrapper" stroke="none"><g id="Icons-custom-/-tag" stroke="none" stroke-width="1" fill="none" fill-rule="evenodd"><g id="tag" transform="translate(0 3)"><path d="M7.013 19.425c.78.767 2.045.767 2.824 0l9.67-9.51c.277-.273.49-.599.63-.945.97.267 1.916.41 2.749.404 2.06-.01 2.744-.898 2.968-1.428.224-.526.385-1.628-1.062-3.078l-.048-.047c-.897-.882-2.2-1.696-3.679-2.3-.272-.11-.545-.21-.811-.305v-.015c-.016-1.166-.972-2.106-2.157-2.122L12.304 0a2.842 2.842 0 0 0-2.045.82L.585 10.33a1.942 1.942 0 0 0 0 2.778l6.428 6.317zm7.453-16.022a1.673 1.673 0 0 1 2.339 0c.384.378.539.898.464 1.386.635.442 1.393.851 2.205 1.182.288.116.566.22.833.31l-.032-2.29.139.058c1.265.52 2.402 1.224 3.134 1.943l.032.032c.694.698.769 1.144.71 1.28-.182.426-2.13.804-5.088-.409-.865-.357-1.677-.798-2.333-1.276l-.07.079a1.673 1.673 0 0 1-2.338 0c-.641-.63-.641-1.66.005-2.295z" id="Shape"/></g></g></g></symbol><symbol id="csi-user_input" viewBox="0 0 26 26"><g class="nc-icon-wrapper" stroke="none"><g id="Icons-custom-/user_input" stroke="none" stroke-width="1" fill="none" fill-rule="evenodd"><g id="input" transform="translate(1 7)"><path d="M24 1.5v9c0 .9-.6 1.5-1.5 1.5h-21C.6 12 0 11.4 0 10.5v-9C0 .6.6 0 1.5 0h21c.9 0 1.5.6 1.5 1.5zm-1.5 9v-9h-21v9h21zM3 3h2v6H3V3z" id="Combined-Shape"/></g></g></g></symbol><symbol id="csi-tree_node" viewBox="0 0 26 26"><g class="nc-icon-wrapper" stroke="none"><g id="Icons-custom-/tree_node" stroke="none" stroke-width="1" fill="none" fill-rule="evenodd"><g id="family-tree" transform="translate(2 2)"><path d="M19.8 15.592V12.1a2.2 2.2 0 0 0-2.2-2.2h-5.5V6.408A3.298 3.298 0 0 0 11 0a3.298 3.298 0 1 0-1.1 6.408V9.9H4.4a2.2 2.2 0 0 0-2.2 2.2v3.492A3.296 3.296 0 0 0 3.3 22a3.296 3.296 0 1 0 1.1-6.408V12.1h5.5v3.492A3.296 3.296 0 0 0 7.7 18.7a3.3 3.3 0 0 0 6.6 0 3.296 3.296 0 0 0-2.2-3.108V12.1h5.5v3.492a3.296 3.296 0 0 0-2.2 3.108 3.3 3.3 0 0 0 6.6 0 3.297 3.297 0 0 0-2.2-3.108zM3.3 19.8a1.1 1.1 0 1 1 .001-2.201 1.1 1.1 0 0 1-.001 2.2zm7.7 0A1.1 1.1 0 1 1 11 17.599a1.1 1.1 0 0 1-.001 2.2zm0-15.4a1.1 1.1 0 1 1 0-2.201A1.1 1.1 0 0 1 11 4.4zm7.7 15.4a1.1 1.1 0 1 1 .002-2.201 1.1 1.1 0 0 1-.002 2.2z" id="Shape"/></g></g></g></symbol><symbol id="csi-TE-3" viewBox="0 0 26 26"><g class="nc-icon-wrapper" stroke="none"><g id="Icons-custom-/TE-3" stroke="none" stroke-width="1" fill="none" fill-rule="evenodd"><path d="M16.025 11.935s2.476.9 2.475 1.035v1.976c0 .133-2.47 1.106-2.47 1.106l-.456 1.103s1.114 2.387 1.018 2.482l-1.399 1.4c-.094.09-2.527-.968-2.527-.968l-1.1.456S10.665 23 10.529 23H8.553c-.134 0-1.106-2.466-1.106-2.466l-1.101-.458s-2.387 1.113-2.481 1.018l-1.4-1.398c-.092-.093.965-2.53.965-2.53l-.455-1.1S.5 15.167.5 15.03v-1.977c0-.133 2.47-1.103 2.47-1.103l.453-1.103S2.31 8.46 2.407 8.363l1.398-1.4c.093-.09 2.53.968 2.53.968l1.099-.456S8.333 5 8.47 5h1.975c.132 0 1.107 2.468 1.107 2.468l1.1.454s2.386-1.11 2.483-1.014l1.4 1.396c.09.093-.966 2.528-.966 2.528l.456 1.103zM9.5 16.883A2.887 2.887 0 0 0 12.384 14 2.887 2.887 0 0 0 9.5 11.116a2.889 2.889 0 0 0-2.884 2.883A2.889 2.889 0 0 0 9.5 16.883zm15.009-6.958s.982.948.957 1.012l-.41.924c-.029.061-1.394-.01-1.394-.01l-.443.416s.031 1.354-.034 1.377l-.949.356c-.064.022-.994-.991-.994-.991l-.614-.021s-.936.962-1 .932l-.934-.421c-.063-.028-.014-1.389-.014-1.389l-.424-.447s-1.357.01-1.384-.053l-.372-.95c-.024-.064.978-.977.978-.977l.012-.608s-.983-.948-.955-1.014l.41-.923c.028-.062 1.393.012 1.393.012l.444-.419s-.031-1.352.032-1.375L19.766 5c.062-.024.994.99.994.99l.613.024s.935-.967 1.001-.937l.934.422c.063.029.011 1.389.011 1.389l.425.445s1.357-.009 1.384.056l.372.95c.024.063-.979.974-.979.974l-.012.612zm-2.145.188c.327-.741-.017-1.62-.768-1.962-.75-.338-1.63-.01-1.958.73a1.5 1.5 0 0 0 .765 1.964c.753.34 1.632.01 1.96-.732z" id="Combined-Shape"/></g></g></symbol><symbol id="csi-TE-2" viewBox="0 0 26 26"><g class="nc-icon-wrapper" stroke="none"><g id="Icons-custom-/TE-2" stroke="none" stroke-width="1" fill="none" fill-rule="evenodd"><path d="M15.5 13.5c-1.221.846-3 2-3.343 3.438-.58.037-2.188.062-2.851.062C2.29 17 0 14.783 0 14.02V12c1.87 1.181 4.988 2.02 9.306 2.02 1.769 0 4.83-.274 6.194-.52zM10 12C2.462 12 0 9.783 0 9.02V7c2.01 1.181 5.36 2.02 10 2.02S17.99 8.18 20 7v2.02C20 9.782 17.538 12 10 12zm0-5C3.96 7 1.04 5.693 0 4.735 1.39 2.936 5.712 2 10 2s8.61.936 10 2.735C18.96 5.693 16.04 7 10 7zm.647 12.02c.465 0 .712-.012 1.153-.026-.105.493.03 1.016.2 1.506s.5 1 1.2 1.467c-.446.02-2.105.033-2.553.033C5.355 22 0 20.635 0 18.025V17c2.14 1.181 5.707 2.02 10.647 2.02zm12.645.025A2.72 2.72 0 0 1 26 21.773a2.72 2.72 0 0 1-2.708 2.727 2.72 2.72 0 0 1-2.709-2.727c0-.033.009-.065.01-.097l-3.012-1.213a2.681 2.681 0 0 1-1.873.764A2.72 2.72 0 0 1 13 18.5a2.72 2.72 0 0 1 2.708-2.727c.728 0 1.386.293 1.873.764l3.012-1.213c-.001-.032-.01-.064-.01-.097a2.72 2.72 0 0 1 2.709-2.727A2.72 2.72 0 0 1 26 15.227a2.72 2.72 0 0 1-2.708 2.728c-.88 0-1.657-.432-2.152-1.09l-2.775 1.118c.031.169.052.34.052.517s-.02.348-.052.517l2.775 1.117a2.693 2.693 0 0 1 2.152-1.089z" id="Combined-Shape"/></g></g></symbol><symbol id="csi-NBA-9" viewBox="0 0 26 26"><g class="nc-icon-wrapper" stroke="none"><g id="Icons-custom-/NBA-9" stroke="none" stroke-width="1" fill="none" fill-rule="evenodd"><path d="M24.935 1.515l.065.318v6.668c0 .46-.375.833-.833.833a.835.835 0 0 1-.834-.833V3.845l-6.91 6.911a.834.834 0 0 1-1.18-1.178l6.912-6.911h-4.656a.835.835 0 0 1-.833-.834c0-.46.375-.833.833-.833h6.668l.318.065a.833.833 0 0 1 .45.45zM9.578 15.242a.834.834 0 0 1 1.178 1.18l-6.91 6.911H8.5A.835.835 0 0 1 8.5 25H1.833l-.32-.065-.263-.173-.007-.007-.006-.01-.174-.26L1 24.17V17.5c0-.46.373-.834.833-.834.46 0 .834.375.834.833v4.656l6.91-6.913z" id="Combined-Shape"/></g></g></symbol><symbol id="csi-TE-1" viewBox="0 0 26 26"><g class="nc-icon-wrapper" stroke="none"><g id="Icons-custom-/TE-1" stroke="none" stroke-width="1" fill="none" fill-rule="evenodd"><path d="M24.108 19.973c1.116.381 1.892 1.459 1.892 2.69 0 1.564-1.24 2.837-2.765 2.837h-2.037c-.03 0-.06-.002-.09-.004a1.066 1.066 0 0 1-.08.004h-5.093C14.317 25.5 13 24.15 13 22.488c0-1.071.572-2.07 1.473-2.606.324-1.06 1.298-1.807 2.395-1.807.14 0 .28.012.417.036A3.77 3.77 0 0 1 20.35 16.5c1.938 0 3.556 1.528 3.76 3.473zm-.873 4.58c1.003 0 1.82-.848 1.82-1.89 0-.908-.626-1.69-1.488-1.857l-.378-.073-.005-.385c-.02-1.6-1.292-2.9-2.835-2.9-1.01 0-1.92.538-2.439 1.441l-.193.337-.367-.124a1.515 1.515 0 0 0-.482-.08c-.728 0-1.37.537-1.527 1.276l-.048.225-.205.1a2.087 2.087 0 0 0-1.143 1.865c0 1.138.892 2.065 1.99 2.065l5.162-.005.08.003 2.058.002zm-9.827-5.084c-.46.018-.927.031-1.408.031-5.547 0-9.748-1.27-11-2.646V12.5c.576.416 1.322.78 2.193 1.09 1.853.685 4.427 1.165 7.657 1.258a34.072 34.072 0 0 0 2.297 0c3.22-.092 5.79-.57 7.642-1.252.879-.31 1.631-.677 2.211-1.096v4.354c-.037.04-.458-.394-.5-.354-1-.5-1.513-.662-2.626-.662-1.29 0-2.534.561-3.443 1.546-1.281.076-2.424.872-3.023 2.085zm-2.449-5.485l-.153-.004C5.855 13.814 2.16 12.63 1 11.354V7c2.141 1.549 6.669 2.368 11 2.368S20.858 8.548 23 7v4.355c-1.16 1.275-4.855 2.46-9.806 2.626l-.153.003c-.144.004-.287.009-.432.01a37.684 37.684 0 0 1-1.218 0c-.145-.002-.288-.006-.432-.01zM23 5.82C21.752 7.214 17.581 8.5 12 8.5S2.248 7.214 1 5.82V4.735a.48.48 0 0 1 .064-.23C1.574 2.485 5.366.5 12 .5c6.65 0 10.446 1.996 10.94 4.02.035.065.06.136.06.215V5.821zM12.386 22.58c0 1.37.632 2.594 1.614 3.392-.43.018-.866.029-1.31.029-6.142 0-11.083-1.7-11.635-3.976a.436.436 0 0 1-.055-.21V18c1.933 1.354 5.917 2.419 11.69 2.419.096 0 .186-.003.28-.003a4.358 4.358 0 0 0-.584 2.163z" id="Combined-Shape"/></g></g></symbol><symbol id="csi-product-lifecycle" viewBox="0 0 26 26"><g class="nc-icon-wrapper" stroke="none"><g id="Icons-custom-/-product-lifecycle" stroke="none" stroke-width="1" fill="none" fill-rule="evenodd"><path d="M17.286 3H8.714c-.4 0-.714.313-.714.71v8.58c0 .397.314.71.714.71h8.572c.4 0 .714-.313.714-.71V3.71a.706.706 0 0 0-.714-.71z" id="Path"/><path d="M23.915 14.05l-3.396 6.318a5.185 5.185 0 0 1-4.577 2.706H9.755L6.95 25.799a.805.805 0 0 1-.517.201.814.814 0 0 1-.531-.201L2.21 22.21a.725.725 0 0 1 0-1.021l4.37-4.26a3.723 3.723 0 0 1 2.614-1.05h7.678c.221 0 .428.114.546.301a.617.617 0 0 1 .015.62 70.104 70.104 0 0 1-.842 1.568.739.739 0 0 1-.65.388h-5.02a.722.722 0 0 0-.738.72c0 .403.325.72.739.72h5.02c.827 0 1.565-.447 1.949-1.152l2.273-4.216A3.52 3.52 0 0 1 23.265 13c.251 0 .487.13.62.345.148.216.148.49.03.705z" id="Path"/><path d="M15.5 2.52v3.097c0 .433-.367.774-.833.774-.467 0-.834-.341-.834-.774V2.52c0-.433-.366-.774-.833-.774-.467 0-.833.34-.833.774v3.097c0 .433-.367.774-.834.774-.466 0-.833-.341-.833-.774V2.52c0-1.285 1.117-2.322 2.5-2.322s2.5 1.037 2.5 2.322z" id="Path"/></g></g></symbol><symbol id="csi-sequence" viewBox="0 0 26 26"><g class="nc-icon-wrapper" stroke="none"><defs><path d="M4.025 21.75c-.35 0-.75.35-.75.75V24c0 .4.4.75.75.75h11.95c.4 0 .8-.4.8-.75V7.4c0-.45.5-.65.85-.35l2.8 2.8c.3.3.75.3 1.05 0l1.05-1.05c.3-.3.3-.75 0-1.05l-6.75-6.8c-.3-.3-.75-.3-1.05 0L7.975 7.7c-.3.3-.3.75 0 1.05l1.05 1.05c.3.3.75.3 1.05 0l2.8-2.8c.3-.3.9-.1.9.35V21c0 .8-.8.75-.8.75h-8.95z" id="path-1"/></defs><g id="Icons-custom-/sequence" stroke="none" stroke-width="1" fill="none" fill-rule="evenodd"><mask id="mask-2"><use xlink:href="#path-1"/></mask><use id="Mask" transform="rotate(90 13.012 12.738)" xlink:href="#path-1"/></g></g></symbol><symbol id="csi-opportunity-2" viewBox="0 0 26 26"><g class="nc-icon-wrapper" stroke="none"><g id="Icons-custom-/opportunity-2" stroke="none" stroke-width="1" fill="none" fill-rule="evenodd"><path d="M9.552 7.074L7.235 4.912a.725.725 0 0 1-.197-.765.771.771 0 0 1 .63-.508l3.2-.445L12.302.416A.784.784 0 0 1 13 0c.297 0 .568.161.7.416l1.43 2.778 3.202.445c.294.04.538.238.63.508a.725.725 0 0 1-.197.765l-2.317 2.162.54 3.012c.012.054.019.11.019.167 0 .412-.348.746-.779.747a.811.811 0 0 1-.365-.086L13 9.473l-2.864 1.441a.805.805 0 0 1-.82-.057.732.732 0 0 1-.31-.73l.546-3.053zM10.5 17c0-1.654 1.346-3 3-3s3 1.346 3 3-1.346 3-3 3-3-1.346-3-3zm12.18-.707c.206.19.32.44.32.708a.954.954 0 0 1-.32.708l-5.992 5.49a.682.682 0 0 0-.227.502V26h-5.922v-2.299a.682.682 0 0 0-.227-.502l-5.992-5.49A.954.954 0 0 1 4 17c0-.267.114-.519.32-.708.206-.189.48-.293.773-.293.292 0 .566.104.772.293l5.005 4.586a.812.812 0 0 0 .548.208h4.163a.813.813 0 0 0 .549-.208l5.005-4.586c.206-.189.48-.293.772-.293.292 0 .566.104.773.293z" id="Combined-Shape"/></g></g></symbol><symbol id="csi-NBA-8" viewBox="0 0 26 26"><g class="nc-icon-wrapper" stroke="none"><g id="Icons-custom-/NBA-8" stroke="none" stroke-width="1" fill="none" fill-rule="evenodd"><path d="M18.448 14.806a5.651 5.651 0 0 1-2.679 2.117l3.59-6.461c.068.386.103.746.103 1.08 0 1.193-.338 2.281-1.014 3.264zm.077-9.422a4073.36 4073.36 0 0 0-4.227 7.386 2255.35 2255.35 0 0 1-4.24 7.398L9.4 21.33a.423.423 0 0 1-.375.21c-.108 0-.707-.305-1.799-.914a.407.407 0 0 1-.214-.365c0-.105.196-.483.59-1.136a13.93 13.93 0 0 1-3.536-2.257 15.698 15.698 0 0 1-2.798-3.197 1.592 1.592 0 0 1-.268-.9c0-.331.09-.631.268-.901 1.37-2.045 3.069-3.658 5.1-4.841 2.03-1.183 4.25-1.775 6.656-1.775.796 0 1.601.074 2.415.222l.724-1.266A.423.423 0 0 1 16.54 4a.74.74 0 0 1 .242.078c.116.053.255.12.416.203.16.082.308.163.442.241.134.078.275.159.423.241.148.083.235.133.262.15.143.088.214.205.214.353 0 .061-.004.1-.013.118zM8.448 17.663l1.046-1.84a5.804 5.804 0 0 1-1.825-2.075 5.62 5.62 0 0 1-.657-2.649c0-1.052.273-2.031.818-2.936-2.048 1.018-3.752 2.553-5.112 4.607 1.494 2.244 3.404 3.875 5.73 4.893zm5.032-9.461a.596.596 0 0 0 .187-.443.596.596 0 0 0-.187-.444.632.632 0 0 0-.457-.183c-1.118 0-2.078.39-2.878 1.168-.8.779-1.201 1.712-1.201 2.8 0 .173.062.321.188.443a.63.63 0 0 0 .456.183.63.63 0 0 0 .456-.183.596.596 0 0 0 .188-.444c0-.748.273-1.387.819-1.918a2.728 2.728 0 0 1 1.972-.796.63.63 0 0 0 .457-.183zm11.252 3.925c.179.299.268.601.268.908 0 .307-.09.61-.268.908-.348.562-.835 1.198-1.46 1.909-1.339 1.509-2.89 2.68-4.654 3.513A12.984 12.984 0 0 1 13 20.615l.991-1.737a11.244 11.244 0 0 0 5.257-1.803 13.681 13.681 0 0 0 4.037-4.04c-1.026-1.57-2.285-2.86-3.776-3.869l.844-1.474a15.798 15.798 0 0 1 2.444 2.014 13.09 13.09 0 0 1 1.935 2.421z" id="Combined-Shape"/></g></g></symbol><symbol id="csi-opportunity-1" viewBox="0 0 26 26"><g class="nc-icon-wrapper" stroke="none"><g id="Icons-custom-/opportunity-1" stroke="none" stroke-width="1" fill="none" fill-rule="evenodd"><path d="M22.281 14.188a2.386 2.386 0 0 1 0 3.415l-5.146 5.053v2.576c0 .424-.35.768-.783.768H9.648a.775.775 0 0 1-.783-.768v-2.576L3.72 17.603a2.386 2.386 0 0 1 0-3.415 2.464 2.464 0 0 1 1.738-.707c.657 0 1.274.251 1.739.707l1.777 1.746C8.985 13.763 10.786 12 13 12c2.213 0 4.015 1.763 4.027 3.934l1.777-1.746a2.464 2.464 0 0 1 1.739-.707c.656 0 1.274.251 1.738.707zM13 13.537c-1.358 0-2.462 1.084-2.462 2.418 0 1.333 1.104 2.418 2.462 2.418s2.462-1.085 2.462-2.418c0-1.334-1.104-2.418-2.462-2.418zm8.175 2.979a.867.867 0 0 0 0-1.241.895.895 0 0 0-.632-.257.897.897 0 0 0-.632.257l-4.49 4.41a.79.79 0 0 1-.554.224h-3.734a.79.79 0 0 1-.554-.225l-4.49-4.41a.897.897 0 0 0-.632-.256.896.896 0 0 0-.632.257.867.867 0 0 0 0 1.241l5.376 5.279c.147.144.23.34.23.543v2.125h5.139v-2.125c0-.204.082-.4.229-.543l5.376-5.279zM9.552 7.718L7.236 5.359a.84.84 0 0 1-.198-.835.79.79 0 0 1 .63-.554l3.201-.486 1.432-3.03A.778.778 0 0 1 13 0c.297 0 .568.176.7.454l1.431 3.03 3.201.486a.79.79 0 0 1 .63.554.84.84 0 0 1-.198.835l-2.316 2.359.54 3.285c.012.06.02.12.02.183 0 .449-.35.813-.78.814h-.002a.75.75 0 0 1-.363-.094L13 10.334l-2.863 1.572a.752.752 0 0 1-.822-.062.832.832 0 0 1-.31-.796l.547-3.33zM11.5 5.034l-2.043.31 1.478 1.506a.837.837 0 0 1 .225.721l-.35 2.126 1.828-1.004a.75.75 0 0 1 .726 0l1.828 1.004-.35-2.126a.838.838 0 0 1 .225-.72l1.479-1.506-2.044-.31a.783.783 0 0 1-.587-.446L13 2.655l-.914 1.934a.783.783 0 0 1-.587.445z" id="Combined-Shape"/></g></g></symbol><symbol id="csi-NBA-14" viewBox="0 0 26 26"><g class="nc-icon-wrapper" stroke="none"><g id="Icons-custom-/NBA-14" stroke="none" stroke-width="1" fill="none" fill-rule="evenodd"><path d="M11.066 13c1.653 0 3.107.967 3.934 2.421-1.314.578-2.247 2.01-2.247 3.683V26H0v-7.79C0 15.337 2.09 13 4.66 13h6.406zM8 5c2.206 0 4 1.57 4 3.5S10.206 12 8 12s-4-1.57-4-3.5S5.794 5 8 5zm15.439 13C24.85 18 26 19.043 26 20.326V26H14v-5.674C14 19.043 15.149 18 16.561 18h6.878zM20.5 10c1.379 0 2.5 1.121 2.5 2.5S21.879 15 20.5 15a2.503 2.503 0 0 1-2.5-2.5c0-1.378 1.121-2.5 2.5-2.5z" id="Combined-Shape"/></g></g></symbol><symbol id="csi-NBA-12" viewBox="0 0 26 26"><g class="nc-icon-wrapper" stroke="none"><g id="Icons-custom-/NBA-12" stroke="none" stroke-width="1" fill="none" fill-rule="evenodd"><path d="M2 23.044V2.956C2 2.153 2.576 1.5 3.286 1.5h3.428C7.424 1.5 8 2.153 8 2.956v20.088c0 .803-.576 1.456-1.286 1.456H3.286C2.576 24.5 2 23.847 2 23.044zM11.286 1.5h3.428c.71 0 1.286.653 1.286 1.456v20.088c0 .803-.576 1.456-1.286 1.456h-3.428c-.71 0-1.286-.653-1.286-1.456V2.956c0-.803.576-1.456 1.286-1.456zm8 23c-.71 0-1.286-.653-1.286-1.456V2.956c0-.803.576-1.456 1.286-1.456h3.428c.71 0 1.286.653 1.286 1.456v20.088c0 .803-.576 1.456-1.286 1.456h-3.428z" id="Combined-Shape" transform="rotate(90 13 13)"/></g></g></symbol><symbol id="csi-NBA-11" viewBox="0 0 26 26"><g class="nc-icon-wrapper" stroke="none"><g id="Icons-custom-/NBA-11" stroke="none" stroke-width="1" fill="none" fill-rule="evenodd"><path d="M2 23.044V2.956C2 2.153 2.576 1.5 3.286 1.5h3.428C7.424 1.5 8 2.153 8 2.956v20.088c0 .803-.576 1.456-1.286 1.456H3.286C2.576 24.5 2 23.847 2 23.044zM11.286 1.5h3.428c.71 0 1.286.653 1.286 1.456v20.088c0 .803-.576 1.456-1.286 1.456h-3.428c-.71 0-1.286-.653-1.286-1.456V2.956c0-.803.576-1.456 1.286-1.456zm8 23c-.71 0-1.286-.653-1.286-1.456V2.956c0-.803.576-1.456 1.286-1.456h3.428c.71 0 1.286.653 1.286 1.456v20.088c0 .803-.576 1.456-1.286 1.456h-3.428z" id="Combined-Shape"/></g></g></symbol><symbol id="csi-NBA-7" viewBox="0 0 26 26"><g class="nc-icon-wrapper" stroke="none"><g id="Icons-custom-/NBA-7" stroke="none" stroke-width="1" fill="none" fill-rule="evenodd"><path d="M24.732 12.602c-1.25-1.988-2.93-3.585-5.042-4.792C17.578 6.603 15.348 6 13 6c-2.348 0-4.578.603-6.69 1.81-2.111 1.207-3.792 2.804-5.042 4.792A1.766 1.766 0 0 0 1 13.5c0 .295.09.595.268.899 1.25 1.988 2.93 3.585 5.042 4.791C8.422 20.397 10.652 21 13 21c2.348 0 4.578-.6 6.69-1.803 2.111-1.202 3.792-2.802 5.042-4.798.179-.304.268-.603.268-.899 0-.295-.09-.594-.268-.898zM10.127 9.04A3.975 3.975 0 0 1 13 7.875c.178 0 .33.06.455.182s.188.27.188.443a.595.595 0 0 1-.187.443.629.629 0 0 1-.456.182c-.768 0-1.424.265-1.969.794-.544.53-.817 1.168-.817 1.914a.595.595 0 0 1-.187.443.629.629 0 0 1-.456.183.63.63 0 0 1-.455-.183.594.594 0 0 1-.188-.443c0-1.085.4-2.016 1.199-2.793zm8.692 8.712A11.266 11.266 0 0 1 13 19.334c-2.09 0-4.029-.527-5.82-1.582-1.79-1.055-3.278-2.472-4.466-4.252 1.358-2.048 3.058-3.58 5.103-4.596A5.57 5.57 0 0 0 7 11.834c0 1.606.587 2.979 1.761 4.12 1.174 1.142 2.587 1.713 4.239 1.713 1.652 0 3.065-.571 4.239-1.712C18.413 14.813 19 13.44 19 11.833a5.57 5.57 0 0 0-.817-2.93c2.044 1.016 3.745 2.549 5.103 4.597-1.188 1.78-2.676 3.197-4.467 4.252z" id="Shape"/></g></g></symbol><symbol id="csi-NBA-10" viewBox="0 0 26 26"><g class="nc-icon-wrapper" stroke="none"><g id="Icons-custom-/NBA-10" stroke="none" stroke-width="1" fill="none" fill-rule="evenodd"><path d="M24.756 1.244a.834.834 0 0 1-.001 1.18l-6.91 6.91H22.5c.458 0 .833.373.833.833 0 .46-.375.833-.833.833h-6.667l-.318-.065-.263-.175-.007-.003-.007-.01-.173-.262L15 10.17V3.5c0-.46.375-.833.833-.833.459 0 .834.373.834.833v4.655l6.911-6.911a.834.834 0 0 1 1.178 0zM10.485 15.065a.836.836 0 0 1 .45.452l.065.317v6.668a.835.835 0 0 1-.833.833.835.835 0 0 1-.834-.833v-4.656l-6.911 6.911a.833.833 0 0 1-1.177-1.179l6.91-6.91H3.5a.835.835 0 0 1-.833-.834c0-.457.373-.834.833-.834h6.667l.318.065z" id="Combined-Shape"/></g></g></symbol><symbol id="csi-NBA-6" viewBox="0 0 26 26"><g class="nc-icon-wrapper" stroke="none"><g id="Icons-custom-/NBA-6" stroke="none" stroke-width="1" fill="none" fill-rule="evenodd"><path d="M15.717 4.243a.398.398 0 0 1 .235.203c.052.1.062.208.03.321l-4.485 16.925a.422.422 0 0 1-.186.255.31.31 0 0 1-.283.033l-.745-.223a.398.398 0 0 1-.235-.203.424.424 0 0 1-.03-.321l4.485-16.925a.422.422 0 0 1 .186-.255.312.312 0 0 1 .283-.033l.745.223zM9 7.164c0 .122-.046.23-.138.323L3.461 13l5.401 5.513a.448.448 0 0 1 0 .646l-.687.7A.43.43 0 0 1 7.86 20a.43.43 0 0 1-.316-.14l-6.405-6.537a.448.448 0 0 1 0-.646L7.543 6.14A.43.43 0 0 1 7.859 6a.43.43 0 0 1 .316.14l.687.702A.448.448 0 0 1 9 7.164zm15.863 5.513a.448.448 0 0 1 0 .646l-6.406 6.537a.43.43 0 0 1-.316.14.43.43 0 0 1-.317-.14l-.687-.701a.448.448 0 0 1 0-.646L22.54 13l-5.403-5.513a.447.447 0 0 1 0-.645l.687-.702a.431.431 0 0 1 .317-.14.43.43 0 0 1 .316.14l6.406 6.537z" id="Combined-Shape"/></g></g></symbol></svg>