<svg id="Layer_1" data-name="Layer 1" xmlns="http://www.w3.org/2000/svg" viewBox="0 0 52 52"><g class="nc-icon-wrapper"><path d="M27.4 2A1.58 1.58 0 0 1 29 3.6v11.2a3.89 3.89 0 0 0 4.2 4.2h11.2a1.58 1.58 0 0 1 1.6 1.6v24.6a4.87 4.87 0 0 1-4.8 4.8H10.8A4.87 4.87 0 0 1 6 45.2V6.8A4.87 4.87 0 0 1 10.8 2h16.6zm7.52 24H17.08a.68.68 0 0 0-.52 1.12l7.79 9.12a1.65 1.65 0 0 1 .36 1v5.78a.66.66 0 0 0 .65.6h1.2a.58.58 0 0 0 .56-.6v-5.73a1.47 1.47 0 0 1 .45-1l7.87-9.12a.68.68 0 0 0-.52-1.17zM34.2 2a1.4 1.4 0 0 1 .9.3l10.6 10.6a1.4 1.4 0 0 1 .3.9 1.2 1.2 0 0 1-1.1 1.2h-8.5a3.5 3.5 0 0 1-3.4-3.4V3.1A1.2 1.2 0 0 1 34.2 2z"/></g></svg>