<svg xmlns="http://www.w3.org/2000/svg" viewBox="0 0 52 52"><g class="nc-icon-wrapper"><path d="M16.35 10.4h18.89A1.74 1.74 0 0 0 37 8.67V5.2A5.22 5.22 0 0 0 31.77 0h-12a5.22 5.22 0 0 0-5.2 5.2v3.47a1.87 1.87 0 0 0 1.78 1.73z"/><path d="M8.55 4.33a.82.82 0 0 1 .86.87v3.47a6.94 6.94 0 0 0 6.85 6.93h18.89A6.88 6.88 0 0 0 42 8.67V5.2a.82.82 0 0 1 .87-.87h1.73a5.22 5.22 0 0 1 5.2 5.2V46.8a5.22 5.22 0 0 1-5.2 5.2H6.81a5.2 5.2 0 0 1-5.11-5.2V9.53a5.2 5.2 0 0 1 5.11-5.2h1.74zm27 19.94h-19.2a.75.75 0 0 0-.61 1.21l8.41 9.88a2 2 0 0 1 .43 1.13v6.24a.75.75 0 0 0 .69.69h1.3a.67.67 0 0 0 .61-.69v-6.24a1.39 1.39 0 0 1 .52-1.13l8.49-9.88a.73.73 0 0 0-.6-1.21z"/></g></svg>