<svg xmlns="http://www.w3.org/2000/svg" viewBox="0 0 52 52"><g class="nc-icon-wrapper"><path d="M30.4 11.3L44 24.8a1.57 1.57 0 0 1 0 2.2L30.4 40.5a1.57 1.57 0 0 1-2.2 0L26 38.3a1.57 1.57 0 0 1 0-2.2l9.4-9.1a1.57 1.57 0 0 0 0-2.2l-9.3-9.1a1.57 1.57 0 0 1 0-2.2l2.2-2.2a1.66 1.66 0 0 1 2.1 0z"/><path d="M12.3 11.3l13.8 13.5a1.57 1.57 0 0 1 0 2.2L12.3 40.5a1.57 1.57 0 0 1-2.2 0l-2.2-2.2a1.57 1.57 0 0 1 0-2.2l9.4-9.1a1.57 1.57 0 0 0 0-2.2L8 15.7a1.57 1.57 0 0 1 0-2.2l2.2-2.2a1.66 1.66 0 0 1 2.1 0z"/></g></svg>