<svg id="Layer_1" data-name="Layer 1" xmlns="http://www.w3.org/2000/svg" viewBox="0 0 52 52"><g class="nc-icon-wrapper"><path d="M8.55 36.91A6.55 6.55 0 1 1 2 43.45a6.54 6.54 0 0 1 6.55-6.54zm17.45 0a6.55 6.55 0 1 1-6.55 6.54A6.55 6.55 0 0 1 26 36.91zm17.45 0a6.55 6.55 0 1 1-6.54 6.54 6.54 6.54 0 0 1 6.54-6.54zM8.55 19.45A6.55 6.55 0 1 1 2 26a6.55 6.55 0 0 1 6.55-6.55zm17.45 0A6.55 6.55 0 1 1 19.45 26 6.56 6.56 0 0 1 26 19.45zm17.45 0A6.55 6.55 0 1 1 36.91 26a6.55 6.55 0 0 1 6.54-6.55zM8.55 2A6.55 6.55 0 1 1 2 8.55 6.54 6.54 0 0 1 8.55 2zM26 2a6.55 6.55 0 1 1-6.55 6.55A6.55 6.55 0 0 1 26 2zm17.45 0a6.55 6.55 0 1 1-6.54 6.55A6.55 6.55 0 0 1 43.45 2z" fill-rule="evenodd"/></g></svg>