<svg id="Layer_1" data-name="Layer 1" xmlns="http://www.w3.org/2000/svg" viewBox="0 0 52 52"><g class="nc-icon-wrapper"><path d="M45.2 14.9H6.8A4.77 4.77 0 0 0 2 19.6v25.6A4.87 4.87 0 0 0 6.8 50h38.4a4.87 4.87 0 0 0 4.8-4.8V19.6a4.77 4.77 0 0 0-4.8-4.7zM17.4 29.8l1.4-1.4a1 1 0 0 1 1.4 0l2.4 2.4a.63.63 0 0 0 .9 0 .61.61 0 0 0 .2-.52V21.6a1.08 1.08 0 0 1 1-1H27a1 1 0 0 1 1 1v8.7a.65.65 0 0 0 1.1.5l2.4-2.4a1 1 0 0 1 1.4 0l1.4 1.4a1 1 0 0 1 0 1.4l-7.8 7.6a1 1 0 0 1-1.4 0l-7.7-7.6a1 1 0 0 1 0-1.4zm17.8 14a1 1 0 0 1-1 1H17.8a1 1 0 0 1-1-1v-2.1a1 1 0 0 1 1-1h16.4a1 1 0 0 1 1 1z"/><path d="M15.7 10h3.2a.74.74 0 0 0 .8-.67V6.8h12.7v2.4a.74.74 0 0 0 .67.8h3.33a.74.74 0 0 0 .8-.67V6.8A4.87 4.87 0 0 0 32.4 2H19.7a4.8 4.8 0 0 0-4.8 4.8v2.4a.74.74 0 0 0 .67.8z"/></g></svg>