<svg id="Layer_1" data-name="Layer 1" xmlns="http://www.w3.org/2000/svg" viewBox="0 0 52 52"><g class="nc-icon-wrapper"><g id="price-book-entry"><path id="Combined-Shape" d="M25 2.3l11.7.2a5.51 5.51 0 0 1 2.5 1l4.6 4.6 4.6 4.6a3.55 3.55 0 0 1 1 2.5l.3 11.8a3.55 3.55 0 0 1-1 2.5L29.5 48.7a3.69 3.69 0 0 1-5 0L13.9 38.1 3.3 27.5a3.69 3.69 0 0 1 0-5L22.5 3.3a3.55 3.55 0 0 1 2.5-1zM18.6 21l-1.9 1.8a.85.85 0 0 0 0 1.3l11.2 11.2a.85.85 0 0 0 1.3 0l1.9-1.9a.85.85 0 0 0 0-1.3L19.7 21a.65.65 0 0 0-1.1 0zm5.3-5.4L22 17.5a.85.85 0 0 0 0 1.3L33.2 30a.85.85 0 0 0 1.3 0l1.9-1.9a.85.85 0 0 0 0-1.3L25.1 15.6a.91.91 0 0 0-1.2 0zM42 10a3.69 3.69 0 0 0-5 0 3.69 3.69 0 0 0 0 5 3.69 3.69 0 0 0 5 0 3.69 3.69 0 0 0 0-5z"/></g></g></svg>