<svg id="Layer_1" data-name="Layer 1" xmlns="http://www.w3.org/2000/svg" viewBox="0 0 52 52"><g class="nc-icon-wrapper"><g id="icons"><path d="M31.9 39.5h6a1.42 1.42 0 0 0 1.5-1.5V14a1.42 1.42 0 0 0-1.5-1.5h-6a1.42 1.42 0 0 0-1.5 1.5v24a1.42 1.42 0 0 0 1.5 1.5z"/><path d="M45.4 39.5h3a1.42 1.42 0 0 0 1.5-1.5V14a1.42 1.42 0 0 0-1.5-1.5h-3a1.42 1.42 0 0 0-1.5 1.5v24a1.42 1.42 0 0 0 1.5 1.5z"/><path d="M25 39.5a1.37 1.37 0 0 0 1.5-1.5V14a1.42 1.42 0 0 0-1.5-1.5 1.42 1.42 0 0 0-1.5 1.5v24a1.37 1.37 0 0 0 1.5 1.5z"/><path d="M16.6 39.5H18a1.42 1.42 0 0 0 1.5-1.5V14a1.42 1.42 0 0 0-1.5-1.5h-1.5A1.42 1.42 0 0 0 15 14v24a1.45 1.45 0 0 0 1.6 1.5z"/><path d="M3.6 39.5h6a1.42 1.42 0 0 0 1.5-1.5V14a1.42 1.42 0 0 0-1.5-1.5h-6A1.42 1.42 0 0 0 2.1 14v24a1.47 1.47 0 0 0 1.5 1.5z"/></g></g></svg>