<svg version="1.1" xmlns="http://www.w3.org/2000/svg" x="0" y="0" viewBox="0 0 52 52" xml:space="preserve"><g class="nc-icon-wrapper"><path d="M43 23.1h5c1.1 0 2 .9 2 2v2c0 1.1-.9 2-2 2h-5c-.6 0-.9-.5-.8-1 0 0 .3-1 .3-2s-.3-2.1-.3-2.1c-.1-.6.3-1 .8-.9z"/><path d="M10.8 41H4c-1.1 0-2 .9-2 2v2c0 1.1.9 2 2 2h6.8c1 1.8 3 3 5.2 3 3.3 0 6-2.7 6-6s-2.7-6-6-6c-2.2 0-4.2 1.2-5.2 3z"/><path d="M26.2 42s.3 1.1.3 2.1-.3 2-.3 2c-.1.5.2 1 .8 1h21c1.1 0 2-.9 2-2v-2c0-1.1-.9-2-2-2H27c-.6-.1-.9.3-.8.9z"/><path d="M30.2 6s.3 1.1.3 2.1-.3 2-.3 2c-.1.5.2 1 .8 1h17c1.1 0 2-.9 2-2v-2c0-1.1-.9-2-2-2H31c-.5-.1-.9.3-.8.9z"/><path d="M14.8 5H4c-1.1 0-2 .9-2 2v2c0 1.1.9 2 2 2h10.8c1 1.8 3 3 5.2 3 3.3 0 6-2.7 6-6s-2.7-6-6-6c-2.2 0-4.2 1.2-5.2 3z"/><path d="M26.8 23H4c-1.1 0-2 .9-2 2v2c0 1.1.9 2 2 2h22.8c1 1.8 3 3 5.2 3 3.3 0 6-2.7 6-6s-2.7-6-6-6c-2.2 0-4.2 1.2-5.2 3z"/></g></svg>