<svg id="Layer_1" data-name="Layer 1" xmlns="http://www.w3.org/2000/svg" viewBox="0 0 52 52"><g class="nc-icon-wrapper"><path d="M45 28.2a1.13 1.13 0 0 0 .7-1.2V5a1.31 1.31 0 0 0-1.4-1.4h-2.8A1.31 1.31 0 0 0 40.1 5v16.8a7.33 7.33 0 0 1 4.9 6.4z"/><path d="M29.3 28.3h1.1a7.36 7.36 0 0 1 5.7-6.8V5a1.31 1.31 0 0 0-1.4-1.4h-5.4A1.31 1.31 0 0 0 27.9 5v22a1.24 1.24 0 0 0 1.4 1.3z"/><path d="M16.6 3.7h-1.4a1.31 1.31 0 0 0-1.4 1.4v22a1.26 1.26 0 0 0 1.4 1.4h1.4a1.31 1.31 0 0 0 1.4-1.4V5a1.41 1.41 0 0 0-1.4-1.3z"/><path d="M8.9 3.7H3.5A1.24 1.24 0 0 0 2.1 5v22a1.37 1.37 0 0 0 1.4 1.4h5.4a1.31 1.31 0 0 0 1.4-1.4V5a1.34 1.34 0 0 0-1.4-1.3z"/><path d="M23.1 3.6H23A1.31 1.31 0 0 0 21.6 5v22c-.1.8.5 1.3 1.5 1.3a1.31 1.31 0 0 0 1.4-1.4V5a1.31 1.31 0 0 0-1.4-1.4z"/><path d="M45.9 39.4a4.07 4.07 0 0 0-4 3.3h-5.4a.46.46 0 0 0-.4.5v.4a4.25 4.25 0 0 1-.2 1.1c-.1.2.2.5.4.5h5.8a3.84 3.84 0 0 0 3.7 2.4 4.19 4.19 0 0 0 4.1-4.1 4.1 4.1 0 0 0-4-4.1z"/><path d="M33.6 28.8a4 4 0 0 0 5.3 3.8l2.8 5.2c.2.2.4.3.6.2a2.85 2.85 0 0 1 1.4-.6.48.48 0 0 0 .2-.6l-3-5.5a3.66 3.66 0 0 0 .9-2.5 4.1 4.1 0 1 0-8.2 0z"/><path d="M35.1 34.6a10 10 0 0 1-1.4-.8c-.2-.2-.5-.1-.6.2l-2.8 5.4a1.27 1.27 0 0 0-.6-.1 4.09 4.09 0 1 0 2.8 1.1l2.8-5.2a.85.85 0 0 0-.2-.6z"/></g></svg>