<svg id="Layer_1" data-name="Layer 1" xmlns="http://www.w3.org/2000/svg" viewBox="0 0 52 52"><g class="nc-icon-wrapper"><path d="M23.6 3.6A1.39 1.39 0 0 0 22.1 5v22.6a1.26 1.26 0 0 0 1.4 1.4h.1a1.31 1.31 0 0 0 1.4-1.4V4.9a1.29 1.29 0 0 0-1.4-1.3z"/><path d="M9.1 3.6H3.5A1.31 1.31 0 0 0 2.1 5v22.6A1.37 1.37 0 0 0 3.5 29h5.6a1.31 1.31 0 0 0 1.4-1.4V4.9a1.41 1.41 0 0 0-1.4-1.3z"/><path d="M16.9 3.6h-1.4A1.31 1.31 0 0 0 14.1 5v22.6a1.26 1.26 0 0 0 1.4 1.4h1.4a1.31 1.31 0 0 0 1.4-1.4V4.9a1.24 1.24 0 0 0-1.4-1.3z"/><path d="M44.4 24.4v.2l.1.7c.2.1.3.2.5.3l.7-.5.6-.2.5-.2V4.9a1.31 1.31 0 0 0-1.4-1.4h-2.8a1.31 1.31 0 0 0-1.4 1.4v15.8a4.67 4.67 0 0 1 3.2 3.7z"/><path d="M31.7 25l.5.2a3.33 3.33 0 0 1 .6-.3l.1-.6v-.2a4.9 4.9 0 0 1 4.1-3.8V4.9a1.34 1.34 0 0 0-1.4-1.3H30A1.31 1.31 0 0 0 28.6 5v19.9a4.3 4.3 0 0 1 1.2-.2 4.9 4.9 0 0 1 1.9.3z"/><path d="M47.4 37.8a11.14 11.14 0 0 0 .2-1.7 8.81 8.81 0 0 0-.2-1.7l1.9-1.6a1.8 1.8 0 0 0 .4-2.2l-.8-1.5a1.76 1.76 0 0 0-1.5-.8c-.2 0-.4.1-.6.1l-2.3.9a8.26 8.26 0 0 0-3-1.7l-.4-2.4a1.63 1.63 0 0 0-1.7-1.2h-1.7a1.66 1.66 0 0 0-1.7 1.2l-.4 2.3a8.51 8.51 0 0 0-3.1 1.7l-2.2-.9a1.08 1.08 0 0 0-.6-.1 1.76 1.76 0 0 0-1.5.8l-.8 1.4a1.83 1.83 0 0 0 .4 2.2l1.9 1.6a11.14 11.14 0 0 0-.2 1.7 8.81 8.81 0 0 0 .2 1.7l-1.9 1.7a1.8 1.8 0 0 0-.4 2.2l.8 1.6a1.76 1.76 0 0 0 1.5.8c.2 0 .4-.1.6-.1l2.3-.9a8.26 8.26 0 0 0 3 1.7l.4 2.5a1.72 1.72 0 0 0 1.7 1.4h1.7a1.72 1.72 0 0 0 1.7-1.4l.4-2.5a8.77 8.77 0 0 0 3.2-1.9l2.2.9a1.27 1.27 0 0 0 .6.1 1.76 1.76 0 0 0 1.5-.8l.7-1.3a1.83 1.83 0 0 0-.4-2.2zm-8.8 4.1a5.6 5.6 0 1 1 5.6-5.6 5.59 5.59 0 0 1-5.6 5.6z"/><path d="M38.5 33.1a3.1 3.1 0 1 0 3.1 3.1 3.1 3.1 0 0 0-3.1-3.1z"/></g></svg>