<svg version="1.1" id="Layer_1" xmlns="http://www.w3.org/2000/svg" x="0" y="0" width="52" height="52" viewBox="0 0 52 52" xml:space="preserve" enable-background="new 0 0 52 52"><g class="nc-icon-wrapper"><path d="M50.5 3.6c.9 0 1.5.6 1.5 1.5v42.1c0 .6-.6 1.2-1.5 1.2H39.3c-.6 0-1.2-.3-1.8-.6L21.4 27.6c-.6-.9-.6-1.8 0-2.7L37.8 4.2c.3-.3.9-.6 1.8-.6h10.9zm-50 24l16.4 20.3c.6.6 1.8.9 2.7 0l3.3-2.4c.9-.9 1.2-2.1.3-3L9.9 26.1 23.2 9.7c.6-.9.6-2.4-.3-3L19.6 4c-.9-.6-2.1-.6-2.7.3L.5 24.5c-.7 1.3-.7 2.2 0 3.1z"/></g></svg>