<svg xmlns="http://www.w3.org/2000/svg" style="display: none;">
  
    <symbol id="cloned" viewBox="0 0 512 512">
      <path d="m160 0l277 0c42 0 75 33 75 75l0 277c0 42-33 75-75 75l-32 0 0-64 32 0c7 0 11-5 11-11l0-277c0-7-4-11-11-11l-277 0c-6 0-11 4-11 11l0 32-64 0 0-32c0-42 33-75 75-75z m203 469l0-277c0-23-20-43-43-43l-277 0c-24 0-43 20-43 43l0 277c0 24 19 43 43 43l277 0c23 0 43-19 43-43z m-89-179l-106 105c-4 4-11 4-15 0l-57-58c-5-4-5-11 0-15l15-15c4-4 11-4 15 0l30 31c3 3 8 3 10 0l77-79c5-4 11-4 16 0l15 15c5 4 5 11 0 16z"/>
    </symbol>
  
</svg>
