<svg version="1.1" id="Layer_1" xmlns="http://www.w3.org/2000/svg" x="0" y="0" width="52" height="52" viewBox="0 0 52 52" xml:space="preserve" enable-background="new 0 0 52 52"><g class="nc-icon-wrapper"><path d="M9.8 25.1H21v-.4c0-.1 0-.3.1-.4 0-.3.1-.6.1-.8 0-.2.1-.3.1-.5.1-.2.1-.5.2-.7.1-.2.1-.3.2-.5s.2-.4.2-.7c.1-.2.2-.3.2-.5l.3-.6c.1-.2.2-.3.3-.5l.3-.6c.1-.2.2-.3.3-.5.1-.2.3-.4.4-.5.1-.1.2-.3.4-.4.1-.2.3-.3.4-.5l.4-.4c.2-.1.3-.3.5-.4.1-.1.3-.2.4-.4.2-.1.3-.3.5-.4.2-.1.3-.2.5-.3l.6-.3c.2-.1.3-.2.5-.3l.6-.3c.2-.1.4-.2.5-.2.2-.1.4-.2.6-.2.2-.1.4-.1.6-.2.2-.1.4-.1.7-.2.2 0 .4-.1.6-.1.2 0 .5-.1.7-.1.2 0 .4-.1.6-.1h.2V0H7v52h26V39h-.2c-.2 0-.4 0-.6-.1-.2 0-.5-.1-.7-.1-.2 0-.4-.1-.6-.1-.2-.1-.4-.1-.7-.2-.2-.1-.4-.1-.6-.2-.2-.1-.4-.1-.6-.2-.2-.1-.4-.1-.5-.2l-.6-.3c-.2-.1-.3-.2-.5-.3l-.6-.3c-.2-.1-.3-.2-.5-.3-.2-.1-.3-.3-.5-.4-.2-.1-.3-.2-.4-.4-.2-.1-.3-.3-.5-.4l-.4-.4c-.2-.2-.3-.3-.4-.5l-.4-.4c-.1-.2-.3-.3-.4-.5-.1-.2-.2-.3-.3-.5l-.3-.6c-.1-.2-.2-.3-.3-.5l-.3-.6c-.1-.2-.2-.3-.2-.5-.1-.2-.2-.4-.2-.7-.1-.2-.1-.3-.2-.5s-.1-.5-.2-.7c0-.2-.1-.3-.1-.5-.1-.3-.1-.6-.1-.8 0-.1 0-.3-.1-.4V27H9.8c-.5 0-.9-.4-.9-.9-.1-.6.3-1 .9-1zm0 14.8h20.4c.5 0 .9.4.9.9s-.4.9-.9.9H9.8c-.5 0-.9-.4-.9-.9-.1-.5.3-.9.9-.9zm0-29.7h20.4c.5 0 .9.4.9.9s-.4.9-.9.9H9.8c-.5 0-.9-.4-.9-.9s.3-.9.9-.9z"/><path d="M45 26c0-6.2-5-11.1-11.1-11.1s-11.1 5-11.1 11.1 5 11.1 11.1 11.1S45 32.2 45 26zm-12 8.4V27h-7.4c-.5 0-.9-.4-.9-.9s.4-.9.9-.9H33v-7.4c0-.5.4-.9.9-.9s.9.4.9.9v7.4h7.4c.5 0 .9.4.9.9s-.4.9-.9.9h-7.4v7.4c0 .5-.4.9-.9.9s-.9-.4-.9-.9z"/></g></svg>