<svg version="1.1" id="Layer_1" xmlns="http://www.w3.org/2000/svg" x="0" y="0" width="52" height="52" viewBox="0 0 52 52" xml:space="preserve" enable-background="new 0 0 52 52"><g class="nc-icon-wrapper"><path d="M32.7 21.7l-1-2.3s2.2-5 2-5.2l-2.9-2.9c-.2-.2-5.2 2.1-5.2 2.1l-2.3-.9S21.2 7.4 21 7.4h-4.2c-.3 0-2.2 5.1-2.2 5.1l-2.3.9s-5.1-2.2-5.3-2l-3 3c-.2.2 2.1 5.1 2.1 5.1l-1 2.3s-5.2 2-5.2 2.3v4.1c0 .3 5.2 2.1 5.2 2.1l1 2.3s-2.2 5-2 5.2L7 40.7c.2.2 5.2-2.1 5.2-2.1l2.3.9s2 5.1 2.3 5.1H21c.3 0 2.2-5.1 2.2-5.1l2.3-.9s5.1 2.2 5.3 2l2.9-2.9c.2-.2-2.1-5.1-2.1-5.1l1-2.3s5.2-2 5.2-2.3v-4.1c.1-.3-5.1-2.2-5.1-2.2zM18.9 31.9c-3.3 0-6.1-2.7-6.1-5.9 0-3.3 2.7-5.9 6.1-5.9 3.3 0 6.1 2.7 6.1 5.9 0 3.3-2.7 5.9-6.1 5.9z"/><path d="M50.1 17v-1.2s2-1.8 1.9-1.9l-.7-1.8c-.1-.1-2.7-.1-2.7-.1l-.8-.9s.1-2.6 0-2.7L46 7.6c-.1-.1-2 1.8-2 1.8h-1.2s-1.8-2-1.9-1.9l-1.9.7c-.1 0-.1 2.7-.1 2.7l-.9.7s-2.7-.1-2.7 0l-.8 1.8c-.1.1 1.9 2 1.9 2v1.2s-2 1.8-1.9 1.9l.7 1.8c.1.1 2.7.1 2.7.1l.8.9s-.1 2.6 0 2.7l1.8.8c.1.1 2-1.8 2-1.8h1.2s1.8 2 1.9 1.9l1.9-.7c.1 0 .1-2.7.1-2.7l.9-.8s2.7.1 2.7 0l.8-1.8c0-.1-1.9-1.9-1.9-1.9zm-4.2.4c-.6 1.4-2.4 2.1-3.8 1.4-1.5-.7-2.1-2.4-1.5-3.8.6-1.4 2.4-2.1 3.8-1.4 1.4.6 2.1 2.3 1.5 3.8z"/></g></svg>