<svg id="currency_dollar" width="26" height="26" viewBox="0 0 26 26" xmlns="http://www.w3.org/2000/svg">
<path fill-rule="evenodd" clip-rule="evenodd" d="M15.3565 21.8061V24.27C15.3565 24.7262 14.9016 25 14.4467 25H11.5351C11.0802 25 10.9892 24.7262 10.9892 24.27V21.8973C8.80548 21.4411 6.98574 20.5285 6.53081 20.0722C5.98488 19.5247 5.80291 19.0684 6.25784 18.4297L7.16771 16.9696C7.34969 16.6046 7.80462 16.4221 8.25956 16.4221C8.53252 16.4221 8.80548 16.5133 8.98746 16.6046H9.07844C10.5342 17.5171 11.8081 17.8821 12.7179 17.8821C13.7188 17.8821 14.5377 17.3346 14.5377 16.7871C14.5377 16.3308 14.2647 15.6008 11.5351 14.6882C9.07844 13.7757 6.07587 12.3156 6.07587 8.93916C6.07587 6.93156 7.34969 4.65019 10.9892 3.92015V1.73004C10.9892 1.27376 11.1711 1 11.5351 1H14.4467C14.9016 1 15.3565 1.27376 15.3565 1.73004V3.8289C16.8123 4.19392 18.3591 4.92395 18.905 5.28897C19.178 5.47148 19.36 5.8365 19.451 6.20152C19.542 6.56654 19.36 6.93156 19.178 7.11407L17.9042 8.39164C17.6312 8.75665 17.0853 9.03042 16.7214 9.03042C16.5394 9.03042 16.2664 8.93916 16.0844 8.84791C14.6287 8.02662 13.4458 7.57034 12.6269 7.57034C11.4441 7.57034 10.8982 8.11787 10.8982 8.48289C10.8982 9.03042 11.1711 9.57795 13.6278 10.4905C16.6304 11.4943 19.9969 13.1369 19.9969 16.6046C20.0879 18.9772 18.1771 21.076 15.3565 21.8061Z"/>
</svg>
