<svg version="1.1" id="Layer_1" xmlns="http://www.w3.org/2000/svg" x="0" y="0" width="52" height="52" viewBox="0 0 52 52" xml:space="preserve" enable-background="new 0 0 52 52"><g class="nc-icon-wrapper"><path d="M32.4 29.4c-.6 0-1 .4-1.3.7-.5.6-.7 1.4-.7 2.3 0 .9.3 1.7.7 2.3.2.3.7.7 1.3.7.6 0 1-.4 1.3-.7.5-.6.7-1.4.7-2.3 0-.9-.3-1.7-.7-2.3-.3-.3-.7-.7-1.3-.7z"/><path d="M19.6 22.6c.6 0 1-.4 1.3-.7.5-.6.7-1.4.7-2.3 0-.9-.3-1.7-.7-2.3-.2-.3-.7-.7-1.3-.7s-1 .4-1.3.7c-.5.6-.7 1.4-.7 2.3 0 .9.3 1.7.7 2.3.3.3.7.7 1.3.7z"/><path d="M51.3 24.6L45 19.8l2.3-7.6c.3-.9-.2-1.8-1.1-2.1-.2-.1-.3-.1-.5-.1l-8-.1-2.6-7.5c-.2-.5-.6-.9-1.1-1.1-.5-.2-1.1-.1-1.5.2L26 6.1l-6.5-4.6c-.8-.5-1.8-.3-2.4.4-.1.1-.2.3-.2.4l-2.6 7.5-8 .1c-.9 0-1.7.8-1.7 1.7 0 .2 0 .3.1.5L7 19.8.6 24.6c-.7.6-.9 1.6-.3 2.4l.3.3L7 32.2l-2.3 7.6c-.3.9.2 1.8 1.1 2.1.2.1.3.1.5.1l8 .1 2.6 7.5c.3.9 1.3 1.4 2.2 1 .1-.1.3-.1.4-.2l6.5-4.6 6.5 4.6c.8.5 1.8.3 2.4-.4.1-.1.2-.3.2-.4l2.6-7.5 8-.1c.9 0 1.7-.8 1.7-1.7 0-.2 0-.3-.1-.5L45 32.2l6.4-4.8c.7-.6.9-1.6.3-2.4-.1-.1-.2-.3-.4-.4zM19.6 14.3c2.4 0 4.4 2.4 4.4 5.4 0 3-1.9 5.4-4.4 5.4s-4.4-2.4-4.4-5.4c.1-3 2-5.4 4.4-5.4zm-.3 23.5c-.3.4-.7.6-1.2.6-.3 0-.6-.1-.8-.3-.6-.5-.8-1.4-.3-2l15.7-21.8c.3-.4.7-.6 1.2-.6.3 0 .6.1.8.3.6.5.8 1.4.3 2 0-.1-15.7 21.8-15.7 21.8zm13.1-.1c-2.4 0-4.4-2.4-4.4-5.4 0-3 1.9-5.4 4.4-5.4s4.4 2.4 4.4 5.4c-.1 3-2 5.4-4.4 5.4z"/></g></svg>