<svg version="1.1" id="Layer_1" xmlns="http://www.w3.org/2000/svg" x="0" y="0" width="52" height="52" viewBox="0 0 52 52" xml:space="preserve" enable-background="new 0 0 52 52"><g class="nc-icon-wrapper"><path d="M49.9 0H34c-1.2 0-2.1.9-2.1 2.1s.9 2.1 2.1 2.1h13.8V18c0 1.2.9 2.1 2.1 2.1S52 19.2 52 18V2.1C52 .9 51.1 0 49.9 0z"/><path d="M18 47.8H4.2V34c0-1.2-.9-2.1-2.1-2.1-1.2 0-2.1.9-2.1 2.1v15.9C0 51.1.9 52 2.1 52H18c1.2 0 2.1-.9 2.1-2.1 0-1.2-.9-2.1-2.1-2.1z"/><path d="M51.4.6c-.8-.8-2.2-.8-3 0L29.8 19.2c-.8.8-.8 2.2 0 3 .4.4.9.6 1.5.6s1.1-.2 1.5-.6L51.4 3.6c.8-.8.8-2.2 0-3z"/><path d="M22.2 29.8c-.8-.8-2.2-.8-3 0L.6 48.4c-.8.8-.8 2.2 0 3 .4.4.9.6 1.5.6s1.1-.2 1.5-.6l18.6-18.6c.8-.8.8-2.2 0-3z"/></g></svg>