<svg version="1.1" id="Layer_1" xmlns="http://www.w3.org/2000/svg" x="0" y="0" width="52" height="52" viewBox="0 0 52 52" xml:space="preserve" enable-background="new 0 0 52 52"><g class="nc-icon-wrapper"><path d="M20.2 34.5c0 .5.3 1 .7 1.3.5.4 1 .6 1.2.6.8.1 9.8 1.1 15.7 1.7l-.4 4c-4.6-.5-15.4-1.6-16-1.7-1.1-.2-2.2-.9-2.7-1.2-.5-.4-1-.8-1.3-1.3l-9.7-9.6c-.4-.4-.9-.6-1.4-.6-.5 0-1 .2-1.4.6-.4.4-.6.9-.6 1.4 0 .5.2 1 .6 1.4L20 45.9c1.2 1.2 2.8 1.8 4.5 1.8H52V52H24.2c-2.8 0-5.4-1.1-7.3-3L1.8 34.2C.7 33.1 0 31.6 0 29.9c0-1.6.6-3.2 1.7-4.3 1.1-1.2 2.7-1.8 4.3-1.8 1.6 0 3.2.6 4.3 1.7l6.5 6.3c1-1.8 2.8-3 5-3h14.3v2-2c4.9.1 9.7 1.6 13.7 4.5l2.1 1.5v5l-4.5-3.2c-3.3-2.4-7.3-3.7-11.4-3.7H21.7c-.8 0-1.5.8-1.5 1.6zm1.6-17.9l-7.1-6.7 9.8-1.4L28.8 0l4.3 8.5 9.8 1.4-7.1 6.7 1.7 9.4-8.7-4.4-8.7 4.4 1.7-9.4zm1.8-3.9l2.6 2.4-.6 3.5 3.3-1.7 3.3 1.7-.6-3.5 2.6-2.4-3.6-.5L28.8 9l-1.6 3.3-3.6.4z"/></g></svg>