<svg version="1.1" id="Layer_1" xmlns="http://www.w3.org/2000/svg" x="0" y="0" width="52" height="52" viewBox="0 0 52 52" xml:space="preserve" enable-background="new 0 0 52 52"><g class="nc-icon-wrapper"><g id="Layer_1_120_"><path d="M35.1 11.4c-.1-.1-.3-.2-.4-.3L24.7 8c-4-1.2-6.6.9-7.2 1.6-.4.4-.7.8-.9 1.2l-4.4 10.4c-.3.6-.2 1.4.2 2.2.6 1.1 1.6 1.9 2.8 2.2 1.4.3 2.8-.1 3.9-1.2.3-.3.5-.6.7-.9l1.5-2.8c.3-.5.6-.9 1-1.3 1.3-1.3 1.9-.7 2.1-.4 2.2 2.1 13.9 13.9 13.9 13.9.4.4.3 1.2-.2 1.7s-1.3.6-1.7.2l-3.3-3.3c-.4-.4-1.1-.4-1.5 0-.4.4-.4 1.1 0 1.5l3.3 3.3c.4.4.3 1.2-.2 1.7s-1.3.6-1.7.2L29.7 35c-.4-.4-1.1-.4-1.5 0-.4.4-.4 1.1 0 1.5l3.3 3.3c.4.4.3 1.2-.2 1.7s-1.3.6-1.7.2l-3.3-3.3c-.4-.4-1.1-.4-1.5.1-.4.4-.4 1.1 0 1.5l3.3 3.3c.4.4.3 1.2-.2 1.7s-1.3.6-1.7.2l-4-4c.6-.9.4-2.1-.4-2.9-.9-.9-2.4-1-3.2-.2.8-.8.8-2.3-.2-3.2-.9-.9-2.4-1-3.2-.2.8-.8.8-2.3-.2-3.2-.9-.9-2.4-1-3.2-.2.8-.8.8-2.3-.2-3.2-.9-.9-2.2-1-3.1-.3L2 21.3c-.4-.4-1.1-.4-1.5 0s-.4 1.1 0 1.5l6.4 6.4L4.8 31c-.8.8-.7 2.3.2 3.2.9.9 2.4 1 3.2.2-.8.8-.8 2.3.2 3.2.9.9 2.4 1 3.2.2-.8.8-.8 2.3.2 3.2.9.9 2.4 1 3.2.2-.8.8-.8 2.3.2 3.2.9.9 2.4 1 3.2.2l2-2 4 4c1.3 1.3 3.4 1.2 4.8-.2.6-.6 1-1.5 1.1-2.4.9-.1 1.7-.4 2.4-1.1.6-.6 1-1.5 1.1-2.4.9-.1 1.7-.4 2.4-1.1.6-.6 1-1.5 1.1-2.4.9-.1 1.7-.4 2.4-1.1 1.4-1.4 1.5-3.5.2-4.8l-1.7-1.7 6.9-6.9c.4-.4.4-1.1 0-1.5l-10-9.6z"/><path d="M51.4 13.8l-8.7-8.7c-.8-.8-2.2-.8-3.1 0l-3.1 3.1c-.8.8-.8 2.2 0 3.1l8.7 8.7c.8.8 2.2.8 3.1 0l3.1-3.1c.8-.9.8-2.2 0-3.1zm-4.6 4.5c-1 0-1.8-.8-1.8-1.8s.8-1.8 1.8-1.8 1.8.8 1.8 1.8-.8 1.8-1.8 1.8z"/></g></g></svg>