<svg version="1.1" id="Layer_1" xmlns="http://www.w3.org/2000/svg" x="0" y="0" width="52" height="52" viewBox="0 0 52 52" xml:space="preserve" enable-background="new 0 0 52 52"><g class="nc-icon-wrapper"><path d="M36.7 29.6c1.5-2.2 2.3-4.7 2.3-7.4 0-.8-.1-1.6-.2-2.4l-8.1 14.6c2.5-1 4.5-2.5 6-4.8z"/><path d="M37.9 9.6v-.3c0-.3-.2-.6-.5-.8-.1 0-.2-.1-.6-.3-.2-.2-.5-.4-.8-.5-.3-.2-.6-.4-1-.5-.3-.2-.6-.3-.9-.4-.3-.1-.4-.2-.5-.2-.3 0-.6.2-.8.5l-1.6 2.8c-1.8-.3-3.5-.5-5.2-.5-5.2 0-10 1.3-14.4 3.9-4.4 2.6-8.1 6.2-11 10.8-.4.5-.6 1.2-.6 1.9s.2 1.4.6 2c1.7 2.6 3.7 5 6.1 7.1 2.3 2.1 4.9 3.8 7.6 5-.9 1.5-1.3 2.3-1.3 2.5 0 .3.2.6.5.8 2.4 1.4 3.7 2 3.9 2 .3 0 .6-.2.8-.5l1.4-2.6c2.1-3.7 5.1-9.1 9.2-16.5 4-7.1 7.1-12.6 9.1-16.2zM16.1 36.9C11.1 34.6 6.9 31 3.7 26c2.9-4.6 6.6-8 11.1-10.2-1.2 2-1.8 4.2-1.8 6.5 0 2.1.5 4 1.4 5.9.9 1.9 2.3 3.4 3.9 4.6.1 0-2.2 4.1-2.2 4.1zM27 15.8c-.3.3-.6.4-1 .4-1.7 0-3.1.6-4.3 1.8-1.2 1.2-1.8 2.6-1.8 4.3 0 .4-.1.7-.4 1-.3.3-.6.4-1 .4s-.7-.1-1-.4c-.3-.3-.4-.6-.4-1 0-2.4.9-4.5 2.6-6.2 1.7-1.7 3.8-2.6 6.2-2.6.4 0 .7.1 1 .4.3.3.4.6.4 1 .1.3 0 .7-.3.9z"/><path d="M51.4 24c-1.1-1.8-2.5-3.6-4.2-5.3-1.7-1.7-3.5-3.2-5.3-4.4l-1.8 3.3c3.2 2.2 6 5.1 8.2 8.5-2.3 3.6-5.3 6.6-8.7 8.9-3.5 2.3-7.3 3.6-11.4 4L26 42.7c4.3 0 8.4-.9 12.2-2.8 3.8-1.8 7.2-4.4 10.1-7.7 1.4-1.6 2.4-3 3.2-4.2.4-.7.6-1.3.6-2-.1-.7-.3-1.3-.7-2z"/></g></svg>