<svg version="1.1" id="Layer_1" xmlns="http://www.w3.org/2000/svg" x="0" y="0" width="52" height="52" viewBox="0 0 52 52" xml:space="preserve" enable-background="new 0 0 52 52"><g class="nc-icon-wrapper"><path d="M50.1 2.2H1.9C.8 2.2 0 3 0 4.1v10c0 1 .8 1.9 1.9 1.9h48.2c1 0 1.9-.8 1.9-1.9v-10c0-1.1-.8-1.9-1.9-1.9z"/><path d="M50.1 19.1H1.9C.8 19.1 0 20 0 21v10c0 1 .8 1.9 1.9 1.9h48.2c1 0 1.9-.8 1.9-1.9V21c0-1-.8-1.9-1.9-1.9z"/><path d="M50.1 36H1.9c-1 0-1.9.8-1.9 1.9v10c0 1 .8 1.9 1.9 1.9h48.2c1 0 1.9-.8 1.9-1.9v-10c0-1-.8-1.9-1.9-1.9z"/></g></svg>