<svg version="1.1" id="Layer_1" xmlns="http://www.w3.org/2000/svg" x="0" y="0" width="52" height="52" viewBox="0 0 52 52" xml:space="preserve" enable-background="new 0 0 52 52"><g class="nc-icon-wrapper"><g id="surface1"><path d="M44.1 28.6c-.9-.9-2.1-1.4-3.4-1.4-1.3 0-2.5.5-3.4 1.4L33.8 32c0-4.3-3.5-7.8-7.8-7.8s-7.8 3.5-7.8 7.8l-3.5-3.5c-.9-.9-2.1-1.4-3.4-1.4s-2.5.5-3.4 1.4c-1.9 1.9-1.9 4.9 0 6.8l10 10v5.1c0 .8.7 1.5 1.5 1.5h13.1c.8 0 1.5-.7 1.5-1.5v-5.1l10-10c1.9-1.8 1.9-4.9.1-6.7zM26 27.3c2.6 0 4.8 2.2 4.8 4.8 0 2.6-2.2 4.8-4.8 4.8-2.6 0-4.8-2.2-4.8-4.8 0-2.7 2.2-4.8 4.8-4.8zm15.9 5.9L31.4 43.7c-.3.3-.4.7-.4 1.1V49H21v-4.2c0-.4-.2-.8-.4-1.1L10.1 33.2c-.7-.7-.7-1.8 0-2.5.3-.3.8-.5 1.2-.5.5 0 .9.2 1.2.5l8.7 8.7c.3.3.7.4 1.1.4h7.3c.4 0 .8-.2 1.1-.4l8.7-8.7c.3-.3.8-.5 1.2-.5.5 0 .9.2 1.2.5.8.7.8 1.8.1 2.5z"/><path d="M19.3 14.4l-1.1 6.2c-.1.8.4 1.6 1.2 1.8h.3c.2 0 .5-.1.7-.2l5.6-2.9 5.6 2.9c.2.1.5.2.7.2.8 0 1.5-.7 1.5-1.5v-.3l-1.1-6.1 4.5-4.4c.4-.4.6-1 .4-1.6-.2-.6-.7-1-1.2-1l-6.3-.9L27.3.9c-.4-.8-1.3-1.1-2-.7-.3.1-.5.4-.7.7l-2.8 5.7-6.3.9c-.8.1-1.4.9-1.3 1.7 0 .3.2.6.4.9l4.7 4.3zm3.8-5c.5-.1.9-.4 1.1-.8L26 5l1.8 3.6c.2.4.6.7 1.1.8l4 .6-2.9 2.8c-.4.4-.5.9-.4 1.3l.7 4-3.6-1.9c-.4-.2-1-.2-1.4 0l-3.6 1.9.7-4c.1-.5-.1-1-.4-1.3L19.1 10l4-.6z"/></g></g></svg>