<svg version="1.1" id="Layer_1" xmlns="http://www.w3.org/2000/svg" x="0" y="0" width="52" height="52" viewBox="0 0 52 52" xml:space="preserve" enable-background="new 0 0 52 52"><g class="nc-icon-wrapper"><g id="surface1"><path d="M19.3 14.4l-1.1 6.2c-.1.6.1 1.1.6 1.5.3.2.6.3.9.3.2 0 .5-.1.7-.2l5.6-2.9 5.6 2.9c.2.1.5.2.7.2.8 0 1.5-.7 1.5-1.5v-.3l-1.1-6.1 4.5-4.4c.6-.6.6-1.6 0-2.2-.2-.2-.5-.4-.9-.4L30 6.6 27.2.9C27.1.3 26.6 0 26 0s-1.1.3-1.4.8l-2.8 5.7-6.3.9c-.8.1-1.4.9-1.3 1.7 0 .3.2.6.4.9l4.7 4.4z"/><path d="M20.4 32.8c0 3.1 2.5 5.6 5.6 5.6 3.1 0 5.6-2.5 5.6-5.6 0-3.1-2.5-5.6-5.6-5.6-3.1.1-5.6 2.6-5.6 5.6z"/><path d="M44 31.2c-.4-.4-.9-.6-1.5-.6s-1.1.2-1.5.6L31.2 41c-.3.3-.7.4-1.1.4h-8.2c-.4 0-.8-.2-1.1-.4L11 31.2c-.4-.4-.9-.6-1.5-.6s-1.1.2-1.5.6c-.4.4-.6.9-.6 1.5s.2 1.1.6 1.5L19.7 46c.3.3.4.7.4 1.1V52h11.6v-4.9c0-.4.2-.8.4-1.1L44 34.2c.4-.4.6-.9.6-1.5.1-.6-.2-1.1-.6-1.5z"/></g></g></svg>