<svg version="1.1" id="Layer_1" xmlns="http://www.w3.org/2000/svg" x="0" y="0" width="52" height="52" viewBox="0 0 52 52" xml:space="preserve" enable-background="new 0 0 52 52"><g class="nc-icon-wrapper"><path d="M41.2 6.2h-7.6V0H18.4v7.1l-5-5-2.2 2.2 2 2H1.5v3h11.7l-2 2 2.2 2.2 5-5v7h15.2V9.2h7.6c4.2 0 7.7 3.4 7.7 7.6s-3.5 7.6-7.7 7.6h-2.4l2-2-2.2-2.2-5 5v-7H18.4v6.1h-7.6C4.9 24.5 0 29.3 0 35.1s4.9 10.7 10.8 10.7h2.4l-2 2 2.2 2.2 5-5v7h15.2V36.7H18.4v7l-5-5-2.2 2.2 2 2h-2.4c-4.2 0-7.7-3.4-7.7-7.6s3.5-7.6 7.7-7.6h7.6v6.1h15.2v-7l5 5 2.2-2.2-2-2h2.4c5.9 0 10.8-4.8 10.8-10.7S47.1 6.2 41.2 6.2z"/></g></svg>