<svg id="package_outline" enable-background="new 0 0 32 32" height="512" viewBox="0 0 32 32" width="512" xmlns="http://www.w3.org/2000/svg"><path id="XMLID_1172_" d="m29.447 8.605c-1.513-.756-11.488-5.744-13-6.5-.281-.141-.613-.141-.895 0l-13 6.5c-.346.174-.552.557-.552.895v13c0 .379.214.725.553.895l13 6.5c.293.148.628.134.895 0l13-6.5c.338-.17.552-.516.552-.895v-13c0-.346-.21-.723-.553-.895zm-13.447-4.487 3.909 1.955-10.763 5.382-3.91-1.955zm-1 23.264-11-5.5v-10.764l11 5.5zm1-12.5-4.618-2.309 10.764-5.382 4.618 2.309zm12 7-11 5.5v-10.764l11-5.5z"/></svg>