<svg version="1.1" id="Layer_1" xmlns="http://www.w3.org/2000/svg" x="0" y="0" width="52" height="52" viewBox="0 0 52 52" xml:space="preserve" enable-background="new 0 0 52 52"><g class="nc-icon-wrapper"><path d="M17.1 27.5h18.3c.8 0 1.5-.7 1.5-1.5V7.6c0-.8-.7-1.5-1.5-1.5h-4.6V4.6c0-2.5-2.1-4.6-4.6-4.6s-4.6 2.1-4.6 4.6v1.5H17c-.8 0-1.5.7-1.5 1.5V26c.1.8.8 1.5 1.6 1.5zm7.7-22.9c0-.8.7-1.5 1.5-1.5s1.5.7 1.5 1.5v1.5h-3V4.6z"/><path d="M48.5 25.2c-.3-.5-.8-.7-1.3-.7-2.7 0-5.1 1.5-6.4 3.9l-4.7 8.9c-.8 1.5-2.3 2.4-4 2.4H21.7c-.8 0-1.5-.7-1.5-1.5s.7-1.5 1.5-1.5H32c.6 0 1.1-.3 1.4-.8.3-.5 1.1-2 1.7-3.3.2-.4.2-.9 0-1.3s-.7-.6-1.1-.6H18.1c-2 0-3.9.8-5.4 2.2l-9 9c-.6.6-.6 1.6 0 2.2l7.6 7.6c.3.3.7.4 1.1.4s.8-.1 1.1-.4l5.8-5.7h12.8c4 0 7.6-2.2 9.4-5.7l7-13.4c.3-.7.3-1.2 0-1.7z"/></g></svg>