<svg version="1.1" id="Layer_1" xmlns="http://www.w3.org/2000/svg" x="0" y="0" width="52" height="52" viewBox="0 0 52 52" xml:space="preserve" enable-background="new 0 0 52 52"><g class="nc-icon-wrapper"><path d="M26 22.8c-6.2 0-11.1 5-11.1 11.1S19.8 45 26 45s11.1-5 11.1-11.1c0-6.2-4.9-11.1-11.1-11.1zm8.4 12H27v7.4c0 .5-.4.9-.9.9s-.9-.4-.9-.9v-7.4h-7.4c-.5 0-.9-.4-.9-.9s.4-.9.9-.9h7.4v-7.4c0-.5.4-.9.9-.9s.9.4.9.9V33h7.4c.5 0 .9.4.9.9s-.4.9-.9.9z"/><path d="M37.6 28l.3.6c.1.2.2.4.2.5.1.2.2.4.2.6.1.2.1.4.2.6.1.2.1.4.2.7 0 .2.1.4.1.6 0 .2.1.5.1.7 0 .2.1.4.1.6v.2h13V7H0v26h13v-.2c0-.2 0-.4.1-.6 0-.2.1-.5.1-.7 0-.2.1-.4.1-.6.1-.2.1-.4.2-.7.1-.2.1-.4.2-.6.1-.2.1-.4.2-.6.1-.2.1-.4.2-.5l.3-.6c.1-.2.2-.3.3-.5l.3-.6c.1-.2.2-.3.3-.5.1-.2.3-.3.4-.5.1-.2.2-.3.4-.4.1-.2.3-.3.4-.5l.4-.4c.2-.2.3-.3.5-.4l.4-.4c.2-.1.3-.3.5-.4.2-.1.3-.2.5-.3l.6-.3c.2-.1.3-.2.5-.3l.6-.3c.2-.1.3-.2.5-.2.2-.1.4-.2.7-.2.2-.1.3-.1.5-.2s.5-.1.7-.2c.2 0 .3-.1.5-.1.3-.1.6-.1.8-.1.1 0 .3 0 .4-.1h.4V9.8c0-.5.4-.9.9-.9s.9.4.9.9V21h.4c.1 0 .3 0 .4.1.3 0 .6.1.8.1.2 0 .3.1.5.1.2.1.5.1.7.2.2.1.3.1.5.2s.4.2.7.2c.2.1.3.2.5.2l.6.3c.2.1.3.2.5.3l.6.3c.2.1.3.2.5.3.2.1.4.3.5.4.1.1.3.2.4.4.2.1.3.3.5.4l.4.4c.1.2.3.3.4.5.1.1.2.3.4.4.1.2.3.3.4.5.1.2.2.3.3.5l.3.6c.3.2.4.4.5.6zm2.3-18.2c0-.5.4-.9.9-.9s.9.4.9.9v20.4c0 .5-.4.9-.9.9s-.9-.4-.9-.9V9.8zM12.1 30.2c0 .5-.4.9-.9.9s-.9-.4-.9-.9V9.8c0-.5.4-.9.9-.9s.9.4.9.9v20.4z"/></g></svg>