<svg version="1.1" id="Layer_1" xmlns="http://www.w3.org/2000/svg" x="0" y="0" width="52" height="52" viewBox="0 0 52 52" xml:space="preserve" enable-background="new 0 0 52 52"><g class="nc-icon-wrapper"><path d="M51.4 24c-2.7-4.4-6.4-8-10.9-10.7-4.6-2.7-9.4-4-14.5-4s-9.9 1.3-14.5 4S3.3 19.6.6 24c-.4.7-.6 1.3-.6 2s.2 1.3.6 2c2.7 4.4 6.4 8 10.9 10.7 4.6 2.7 9.4 4 14.5 4s9.9-1.3 14.5-4 8.2-6.2 10.9-10.7c.4-.7.6-1.3.6-2s-.2-1.3-.6-2zm-31.6-7.9c1.7-1.7 3.8-2.6 6.2-2.6.4 0 .7.1 1 .4.3.3.4.6.4 1s-.1.7-.4 1c-.3.3-.6.4-1 .4-1.7 0-3.1.6-4.3 1.8-1.2 1.2-1.8 2.6-1.8 4.3 0 .4-.1.7-.4 1-.3.3-.6.4-1 .4s-.7-.1-1-.4c-.3-.3-.4-.6-.4-1 .1-2.5.9-4.6 2.7-6.3zm18.8 19.4C34.7 37.8 30.5 39 26 39s-8.7-1.2-12.6-3.5C9.5 33.1 6.3 30 3.7 26c2.9-4.6 6.6-8 11.1-10.2-1.2 2-1.8 4.2-1.8 6.5 0 3.6 1.3 6.6 3.8 9.2 2.5 2.5 5.6 3.8 9.2 3.8 3.6 0 6.6-1.3 9.2-3.8 2.5-2.5 3.8-5.6 3.8-9.2 0-2.3-.6-4.5-1.8-6.5 4.4 2.3 8.1 5.7 11.1 10.2-2.6 4-5.8 7.1-9.7 9.5z"/></g></svg>