<svg xmlns="http://www.w3.org/2000/svg" style="display: none;">
    <symbol id="table" viewBox="0 0 512 512">
      <path d="m165 393l0-55c0-2-1-5-3-6-2-2-4-3-7-3l-91 0c-3 0-5 1-7 3-1 1-2 4-2 6l0 55c0 3 1 5 2 7 2 1 4 2 7 2l91 0c3 0 5-1 7-2 2-2 3-4 3-7z m0-110l0-54c0-3-1-5-3-7-2-2-4-3-7-3l-91 0c-3 0-5 1-7 3-1 2-2 4-2 7l0 54c0 3 1 5 2 7 2 2 4 3 7 3l91 0c3 0 5-1 7-3 2-2 3-4 3-7z m146 110l0-55c0-2-1-5-3-6-1-2-4-3-6-3l-92 0c-2 0-5 1-6 3-2 1-3 4-3 6l0 55c0 3 1 5 3 7 1 1 4 2 6 2l92 0c2 0 5-1 6-2 2-2 3-4 3-7z m-146-219l0-55c0-3-1-5-3-7-2-1-4-2-7-2l-91 0c-3 0-5 1-7 2-1 2-2 4-2 7l0 55c0 2 1 5 2 6 2 2 4 3 7 3l91 0c3 0 5-1 7-3 2-1 3-4 3-6z m146 109l0-54c0-3-1-5-3-7-1-2-4-3-6-3l-92 0c-2 0-5 1-6 3-2 2-3 4-3 7l0 54c0 3 1 5 3 7 1 2 4 3 6 3l92 0c2 0 5-1 6-3 2-2 3-4 3-7z m146 110l0-55c0-2-1-5-2-6-2-2-4-3-7-3l-91 0c-3 0-5 1-7 3-2 1-3 4-3 6l0 55c0 3 1 5 3 7 2 1 4 2 7 2l91 0c3 0 5-1 7-2 1-2 2-4 2-7z m-146-219l0-55c0-3-1-5-3-7-1-1-4-2-6-2l-92 0c-2 0-5 1-6 2-2 2-3 4-3 7l0 55c0 2 1 5 3 6 1 2 4 3 6 3l92 0c2 0 5-1 6-3 2-1 3-4 3-6z m146 109l0-54c0-3-1-5-2-7-2-2-4-3-7-3l-91 0c-3 0-5 1-7 3-2 2-3 4-3 7l0 54c0 3 1 5 3 7 2 2 4 3 7 3l91 0c3 0 5-1 7-3 1-2 2-4 2-7z m0-109l0-55c0-3-1-5-2-7-2-1-4-2-7-2l-91 0c-3 0-5 1-7 2-2 2-3 4-3 7l0 55c0 2 1 5 3 6 2 2 4 3 7 3l91 0c3 0 5-1 7-3 1-1 2-4 2-6z m37-92l0 311c0 13-5 23-14 32-9 9-19 14-32 14l-384 0c-13 0-23-5-32-14-9-9-14-19-14-32l0-311c0-12 5-23 14-32 9-9 19-13 32-13l384 0c13 0 23 4 32 13 9 9 14 20 14 32z"/>
    </symbol>
</svg>
