<svg version="1.1" id="Layer_1" xmlns="http://www.w3.org/2000/svg" x="0" y="0" width="52" height="52" viewBox="0 0 52 52" xml:space="preserve" enable-background="new 0 0 52 52"><g class="nc-icon-wrapper"><path d="M46.8 36.9v-5.7c0-4.3-3.5-7.8-7.8-7.8H28.6v-5.6c3.7-1.1 6.5-4.6 6.5-8.7C35.1 4.1 31 0 26 0s-9.1 4.1-9.1 9.1c0 4.1 2.8 7.5 6.5 8.7v5.6H13c-4.3 0-7.8 3.5-7.8 7.8v5.7C2.2 38 0 40.8 0 44.2 0 48.5 3.5 52 7.8 52s7.8-3.5 7.8-7.8c0-3.4-2.2-6.2-5.2-7.3v-5.7c0-1.4 1.2-2.6 2.6-2.6h10.4v8.3c-3 1.1-5.2 3.9-5.2 7.3 0 4.3 3.5 7.8 7.8 7.8s7.8-3.5 7.8-7.8c0-3.4-2.2-6.2-5.2-7.3v-8.3H39c1.4 0 2.6 1.2 2.6 2.6v5.7c-3 1.1-5.2 3.9-5.2 7.3 0 4.3 3.5 7.8 7.8 7.8s7.8-3.5 7.8-7.8c0-3.4-2.2-6.2-5.2-7.3zm-39 9.9c-1.4 0-2.6-1.2-2.6-2.6 0-1.4 1.2-2.6 2.6-2.6 1.4 0 2.6 1.2 2.6 2.6s-1.2 2.6-2.6 2.6zm18.2 0c-1.4 0-2.6-1.2-2.6-2.6 0-1.4 1.2-2.6 2.6-2.6s2.6 1.2 2.6 2.6c0 1.4-1.2 2.6-2.6 2.6zM26 13c-2.2 0-3.9-1.7-3.9-3.9s1.7-3.9 3.9-3.9 3.9 1.7 3.9 3.9S28.2 13 26 13zm18.2 33.8c-1.4 0-2.6-1.2-2.6-2.6 0-1.4 1.2-2.6 2.6-2.6 1.4 0 2.6 1.2 2.6 2.6s-1.2 2.6-2.6 2.6z"/></g></svg>