<svg version="1.1" id="Layer_1" xmlns="http://www.w3.org/2000/svg" x="0" y="0" width="52" height="52" viewBox="0 0 52 52" xml:space="preserve" enable-background="new 0 0 52 52"><g class="nc-icon-wrapper"><path d="M0 48c0 1.8 1.4 3.2 3.2 3.2h8.5c1.8 0 3.2-1.4 3.2-3.2V4c0-1.8-1.4-3.2-3.2-3.2H3.2C1.4.8 0 2.2 0 4v44z"/><path d="M21.7.8c-1.8 0-3.2 1.4-3.2 3.2v44c0 1.8 1.4 3.2 3.2 3.2h8.5c1.8 0 3.2-1.4 3.2-3.2V4c0-1.8-1.4-3.2-3.2-3.2h-8.5z"/><path d="M40.3 51.2h8.5c1.8 0 3.2-1.4 3.2-3.2V4C52 2.2 50.6.8 48.8.8h-8.5c-1.8 0-3.2 1.4-3.2 3.2v44c0 1.8 1.4 3.2 3.2 3.2z"/></g></svg>