<svg version="1.1" id="Layer_1" xmlns="http://www.w3.org/2000/svg" x="0" y="0" width="52" height="52" viewBox="0 0 52 52" xml:space="preserve" enable-background="new 0 0 52 52"><g class="nc-icon-wrapper"><path d="M26 36c-4.2 0-7.6 3.4-7.6 7.6 0 1.2.3 2.4.9 3.4l6.8-4 6.8 4c.5-1.1.9-2.2.9-3.4-.1-4.1-3.5-7.6-7.8-7.6z"/><path d="M26 23.9c-1.7 0-3.1 1.4-3.1 3.1 0 1.7 1.4 3.1 3.1 3.1 1.7 0 3.1-1.4 3.1-3.1 0-1.8-1.4-3.1-3.1-3.1z"/><path d="M52 20.2c-.2-.5-.6-1-1.3-1.1l-16-2.4-7.2-16C27-.4 25.3-.4 24.7.7l-7.2 16-16.1 2.5c-.5.1-1.1.5-1.3 1.1-.2.5 0 1.2.4 1.6l11.6 11.3-3 17.2c-.1.5.1 1.2.6 1.5.5.3 1.2.3 1.6.1l5.2-3.2c-.7-1.5-1.3-3.2-1.3-5C15.3 37.9 20.1 33 26 33c-3.4 0-6.1-2.8-6.1-6.1s2.8-6.1 6.1-6.1c3.4 0 6.1 2.8 6.1 6.1S29.3 33 26 33c5.9 0 10.7 4.8 10.7 10.7 0 1.8-.4 3.4-1.3 5l5.1 3.2c.5.3 1.2.3 1.6-.1.5-.3.7-1 .6-1.5l-2.9-17.2 11.6-11.4c.6-.3.7-.9.6-1.5z"/></g></svg>