<svg version="1.1" id="Layer_1" xmlns="http://www.w3.org/2000/svg" x="0" y="0" width="52" height="52" viewBox="0 0 52 52" xml:space="preserve" enable-background="new 0 0 52 52"><g class="nc-icon-wrapper"><path d="M32.4 7l-1.8-.5c-.2-.1-.5-.1-.7.1-.2.1-.4.3-.4.6L19 43.8c-.1.2-.1.5.1.7.1.2.3.4.6.4l1.8.5c.2.1.4.1.7-.1.2-.1.4-.3.4-.6L33 8.2c.1-.2.1-.5-.1-.7 0-.3-.2-.4-.5-.5z"/><path d="M16.5 14.2c0-.2-.1-.5-.3-.7l-1.4-1.4c-.2-.2-.4-.3-.7-.3-.2 0-.5.1-.7.3L.3 25.3c-.2.2-.3.5-.3.7s.1.5.3.7l13.2 13.2c.2.2.4.3.7.3s.5-.1.7-.3l1.4-1.4c.2-.2.3-.4.3-.7 0-.2-.1-.5-.3-.7L5.1 26l11.2-11.2c.1-.2.2-.4.2-.6z"/><path d="M51.7 25.3L38.5 12.1c-.2-.2-.4-.3-.7-.3-.2 0-.5.1-.7.3l-1.4 1.4c-.2.2-.3.4-.3.7 0 .2.1.5.3.7L46.9 26 35.7 37.2c-.2.2-.3.4-.3.7 0 .2.1.5.3.7l1.4 1.4c.2.2.4.3.7.3.2 0 .5-.1.7-.3l13.2-13.2c.2-.2.3-.4.3-.7 0-.3-.1-.6-.3-.8z"/></g></svg>