<svg version="1.1" id="Layer_1" xmlns="http://www.w3.org/2000/svg" x="0" y="0" width="52" height="52" viewBox="0 0 52 52" xml:space="preserve" enable-background="new 0 0 52 52"><g class="nc-icon-wrapper"><path d="M20.7 29.2H4.8c-1.2 0-2.1.9-2.1 2.1s.9 2.1 2.1 2.1h13.8v13.8c0 1.2.9 2.1 2.1 2.1 1.2 0 2.1-.9 2.1-2.1V31.3c0-1.1-1-2.1-2.1-2.1z"/><path d="M47.2 18.6H33.4V4.8c0-1.2-.9-2.1-2.1-2.1-1.2 0-2.1.9-2.1 2.1v15.9c0 1.2.9 2.1 2.1 2.1h15.9c1.2 0 2.1-.9 2.1-2.1 0-1.2-.9-2.1-2.1-2.1z"/><path d="M51.4.6c-.8-.8-2.2-.8-3 0L29.8 19.2c-.8.8-.8 2.2 0 3 .4.4.9.6 1.5.6s1.1-.2 1.5-.6L51.4 3.6c.8-.8.8-2.2 0-3z"/><path d="M22.2 29.8c-.8-.8-2.2-.8-3 0L.6 48.4c-.8.8-.8 2.2 0 3 .4.4.9.6 1.5.6s1.1-.2 1.5-.6l18.6-18.6c.8-.8.8-2.2 0-3z"/></g></svg>