<svg version="1.1" id="Layer_1" xmlns="http://www.w3.org/2000/svg" x="0" y="0" width="52" height="52" viewBox="0 0 52 52" xml:space="preserve" enable-background="new 0 0 52 52"><g class="nc-icon-wrapper"><path d="M47.7 4.1H4.3C1.9 4.1 0 6 0 8.3V36c0 2.3 1.9 4.3 4.3 4.3h15.1l5.3 7c.6.7 1.6.9 2.3.3l.3-.3 5.3-7h15.1c2.3 0 4.3-1.9 4.3-4.3V8.3c0-2.3-1.9-4.2-4.3-4.2zM23.9 28.5c-.4 0-.9-.2-1.2-.5l-5.4-5.4c-.6-.6-.6-1.7 0-2.3.6-.6 1.7-.6 2.3 0l4.3 4.3 8.4-8.4c.6-.6 1.7-.6 2.3 0 .6.6.6 1.7 0 2.3L25.1 28c-.3.4-.8.5-1.2.5z"/></g></svg>