<svg version="1.1" id="Layer_1" xmlns="http://www.w3.org/2000/svg" x="0" y="0" width="52" height="52" viewBox="0 0 52 52" xml:space="preserve" enable-background="new 0 0 52 52"><g class="nc-icon-wrapper"><path d="M49.7 50.5l-5.3-5.6c1.6-1.8 2.5-4.1 2.5-6.5 0-5.3-4.3-9.6-9.6-9.6s-9.6 4.3-9.6 9.6S32 48 37.3 48c2.2 0 4.2-.7 5.8-2l5.3 5.6c.3.4.9.4 1.3 0 .4-.2.4-.8 0-1.1zm-20.2-12c0-4.3 3.5-7.8 7.8-7.8s7.8 3.5 7.8 7.8-3.5 7.8-7.8 7.8-7.8-3.5-7.8-7.8z"/><path d="M25 38.4c0-3.6 1.6-6.8 4.1-9-.8 0-1.6.1-2.5.1h-4.7c-6.5-.2-11.8-1.1-15.5-2.4-1.8-.6-3.3-1.3-4.4-2.1v8.4c2.5 2.6 11 5.1 22.3 5.1.2-.1.5-.1.7-.1z"/><path d="M22.2 26.7h4.6c10-.3 17.5-2.6 19.9-5v-8.4c-4.3 3-13.5 4.6-22.3 4.6S6.4 16.2 2 13.3v8.4c2.4 2.5 9.8 4.7 19.9 5h.3z"/><path d="M46.6 10.1V8c0-.1 0-.3-.1-.4C45.4 3.8 37.8 0 24.3 0 10.9 0 3.2 3.8 2.1 7.6c0 .1-.1.3-.1.4v2.1c2.5 2.6 11 5.1 22.3 5.1s19.7-2.5 22.3-5.1z"/><path d="M25.3 41.1h-1c-11 0-18.6-2-22.3-4.6v7.3c0 .1 0 .3.1.4 1.1 4.4 10.5 7.6 22.2 7.6 4.2 0 8.2-.4 11.5-1.2-5.2-.6-9.4-4.4-10.5-9.5z"/></g></svg>