<svg version="1.1" id="Layer_1" xmlns="http://www.w3.org/2000/svg" x="0" y="0" width="52" height="52" viewBox="0 0 52 52" xml:space="preserve" enable-background="new 0 0 52 52"><g class="nc-icon-wrapper"><path class="st0" d="M45.8 7.4c0-4.1-3.3-7.4-7.4-7.4S31 3.3 31 7.4c0 3 1.8 5.6 4.4 6.8-.7 6-4.6 7.2-10.2 9-2.8.8-6 1.8-8.6 3.8V14.3c2.6-1.1 4.5-3.8 4.5-6.8C21 3.3 17.7 0 13.6 0S6.2 3.3 6.2 7.4c0 3.1 1.8 5.7 4.5 6.8v23.5c-2.6 1.1-4.5 3.8-4.5 6.8 0 4.1 3.3 7.4 7.4 7.4s7.4-3.3 7.4-7.4c0-3-1.8-5.6-4.4-6.8.7-6 4.6-7.2 10.2-9 5.7-1.8 13.4-4.2 14.3-14.5 2.8-1 4.7-3.7 4.7-6.8zm-36.5 0c0-2.4 2-4.3 4.4-4.2 2.3 0 4.2 1.9 4.2 4.2 0 2.4-1.8 4.3-4.2 4.4S9.4 9.9 9.3 7.6v-.2zm4.3 41.5c-2.4 0-4.3-1.9-4.3-4.3s1.9-4.3 4.3-4.3 4.3 1.9 4.3 4.3c0 2.3-1.9 4.3-4.3 4.3zm24.8-37.2c-2.4 0-4.3-1.9-4.3-4.3s1.9-4.3 4.3-4.3 4.3 1.9 4.3 4.3-2 4.3-4.3 4.3z" fill="#030104"/></g></svg>
