<svg version="1.1" id="Layer_1" xmlns="http://www.w3.org/2000/svg" x="0" y="0" width="52" height="52" viewBox="0 0 52 52" xml:space="preserve" enable-background="new 0 0 52 52"><g class="nc-icon-wrapper"><path d="M14 45.2c1.6 1.6 4.1 1.6 5.6 0L39 25.8c.6-.6 1-1.2 1.3-1.9 1.9.5 3.8.8 5.5.8 4.1 0 5.5-1.8 5.9-2.9.4-1.1.8-3.3-2.1-6.3l-.1-.1c-1.8-1.8-4.4-3.4-7.4-4.7-.5-.2-1.1-.4-1.6-.6 0-2.4-1.9-4.3-4.3-4.3l-11.6-.1c-1.5 0-3 .6-4.1 1.7L1.2 26.7c-1.6 1.6-1.6 4.1 0 5.6L14 45.2zm14.9-32.6c1.3-1.3 3.4-1.3 4.7 0 .8.8 1.1 1.8.9 2.8 1.3.9 2.8 1.7 4.4 2.4.6.2 1.1.4 1.7.6l-.1-4.7c.1 0 .2.1.3.1 2.5 1.1 4.8 2.5 6.3 4l.1.1c1.4 1.4 1.5 2.3 1.4 2.6-.4.9-4.3 1.6-10.2-.8-1.7-.7-3.4-1.6-4.7-2.6 0 .1-.1.1-.1.2a3.32 3.32 0 0 1-4.7 0 3.32 3.32 0 0 1 0-4.7z"/></g></svg>